<svg width="54" height="54" viewBox="0 0 54 54" fill="none" xmlns="http://www.w3.org/2000/svg">
<path d="M53.1673 27.0002V26.9999C53.1691 23.3762 52.4823 19.9774 51.1096 16.7984C49.7327 13.6095 47.8673 10.8407 45.5139 8.48718C43.1604 6.1354 40.3914 4.2708 37.2024 2.89387C34.0234 1.52121 30.6246 0.833526 27.0009 0.833496L53.1673 27.0002ZM53.1673 27.0002C53.1673 30.6239 52.4796 34.0228 51.1069 37.202C49.73 40.3909 47.8655 43.1598 45.5138 45.5133C43.1602 47.8668 40.3913 49.7322 37.2024 51.1091C34.0234 52.4818 30.6246 53.1686 27.0009 53.1668H27.0006M53.1673 27.0002L27.0006 53.1668M27.0006 53.1668C23.3769 53.1668 19.978 52.4791 16.7989 51.1064M27.0006 53.1668L16.7989 51.1064M27.0006 9.16683H27.0018C27.8812 9.1689 28.6425 9.47299 29.2523 10.0807C29.863 10.6893 30.1673 11.4517 30.1673 12.3335V13.2821C32.6454 13.9848 34.5922 15.4645 35.9901 17.7033C37.4419 20.0284 38.1673 22.5979 38.1673 25.4002V31.8689C38.8379 31.9652 39.4276 32.2577 39.9189 32.7473C40.5294 33.3557 40.8337 34.1177 40.834 34.999L27.0006 9.16683ZM27.0006 9.16683C26.1189 9.16683 25.3565 9.4711 24.7478 10.0819C24.1401 10.6917 23.8361 11.4529 23.834 12.3323V12.3335M27.0006 9.16683L23.834 12.3335M23.834 12.3335V13.2818C21.3542 13.983 19.4073 15.4629 18.011 17.7037C16.5612 20.0303 15.8358 22.5995 15.834 25.3998V25.4002M23.834 12.3335L15.834 25.4002M15.834 25.4002V31.8679C15.1619 31.9632 14.5716 32.2564 14.0811 32.7486C13.4735 33.3583 13.1694 34.1196 13.1673 34.999V35.0002L15.834 25.4002ZM16.7989 51.1064C13.6099 49.7295 10.841 47.865 8.48754 45.5133M16.7989 51.1064L8.48754 45.5133M8.48754 45.5133C6.13408 43.1598 4.26956 40.391 2.89445 37.2022C1.52348 34.023 0.835761 30.624 0.833984 27.0002L8.48754 45.5133ZM37.6673 38.1668H16.3352H16.334V37.6668L37.6673 38.1668ZM37.6673 38.1668C38.549 38.1668 39.312 37.8626 39.9222 37.2524M37.6673 38.1668L39.9222 37.2524M39.9222 37.2524C40.5322 36.6424 40.8358 35.8804 40.834 35.0002L39.9222 37.2524ZM31.5006 40.3327L31.4998 39.8335L27.0006 44.3335V44.8335C27.0009 44.8335 27.0012 44.8335 27.0014 44.8335C28.2431 44.8333 29.3152 44.3934 30.1885 43.5221C31.0626 42.65 31.5026 41.5769 31.5006 40.3327ZM0.833984 26.9999C0.834015 23.3762 1.5217 19.9774 2.89436 16.7984C4.27127 13.6095 6.13582 10.8405 8.48754 8.48705C10.841 6.13359 13.6098 4.26907 16.7986 2.89396C19.9778 1.52299 23.3768 0.835273 27.0006 0.833496L0.833984 26.9999Z" fill="#FFCD00" stroke="#0D0E10"/>
</svg>
