<svg width="274" height="289" viewBox="0 0 274 289" fill="none" xmlns="http://www.w3.org/2000/svg">
<g clip-path="url(#clip0_327_11269)">
<mask id="mask0_327_11269" style="mask-type:luminance" maskUnits="userSpaceOnUse" x="0" y="0" width="274" height="289">
<path d="M274 0H0V289H274V0Z" fill="white"/>
</mask>
<g mask="url(#mask0_327_11269)">
<path fill-rule="evenodd" clip-rule="evenodd" d="M136.996 277.793C212.455 277.793 274 215.397 274 138.894C274 62.3968 212.455 0 136.996 0C61.5446 0 0 62.3968 0 138.894C0 215.397 61.5446 277.793 136.996 277.793Z" fill="#FFF9E5"/>
<path fill-rule="evenodd" clip-rule="evenodd" d="M148.484 0.491124C150.088 0.622987 151.692 0.791433 153.28 0.981836L153.411 2.13912L158.128 1.64841C162.802 2.38084 167.404 3.35502 171.912 4.55621L171.45 4.71737L173.697 22.025L182.46 19.0001L179.549 6.84145C180.834 7.26629 182.113 7.70575 183.385 8.17447L185.711 17.8794L194.575 14.8324L193.823 12.4812C195.254 13.1478 196.67 13.8362 198.079 14.5467L205.932 39.2446L225.474 32.8579C227.93 34.9673 230.314 37.1646 232.626 39.4424L261.51 127.475L273.169 123.592C273.343 125.211 273.494 126.846 273.617 128.486L262.997 132.016L272.346 160.501C271.826 163.892 271.182 167.239 270.425 170.535L263.684 172.843L267.476 181.324C266.97 182.936 266.436 184.533 265.873 186.122L260.426 173.956L232.908 183.368L243.528 212.124L255.216 209.113C254.393 210.541 253.541 211.955 252.667 213.354L227.071 219.953L233.153 236.162L235.747 235.166C234.107 236.895 232.416 238.579 230.69 240.22L230.545 240.227L230.465 238.748L223.733 220.811L202.225 226.355L211.87 252.576L219.687 249.639C215.916 252.54 211.986 255.249 207.919 257.754L201.517 260.157L201.9 261.241C200.889 261.798 199.864 262.332 198.838 262.867L198.31 261.365L189.287 264.75L190.082 266.977C185.343 268.997 180.465 270.755 175.474 272.227L186.91 268.258L184.367 261.167L171.941 265.958L159.45 270.77L161.105 275.648C159.963 275.853 158.822 276.044 157.68 276.22L148.874 250.166L125.762 258.824L132.25 277.699C129.598 277.604 126.961 277.442 124.346 277.193L126.782 276.307L121.342 260.479L93.8741 270.763C92.1836 270.192 90.5004 269.591 88.8316 268.953L120.214 257.205L116.075 245.179L67.5773 256.041L68.7333 259.343C65.9013 257.696 63.1344 255.939 60.4324 254.092L61.8628 253.77L53.273 225.387L33.5142 229.914C32.6762 228.933 31.8454 227.937 31.0291 226.926L52.2688 222.062L47.2261 205.422L21.753 214.02C20.8787 212.651 20.0336 211.259 19.21 209.853L26.9978 207.215L21.8541 193.256L13.9939 196.237L12.8019 192.984L20.6548 190.01L15.2076 175.237L5.6425 178.431C5.31741 177.325 5.00673 176.204 4.71056 175.083L32.9146 165.671L18.8777 127.079L6.01818 131.349L11.7038 147.17L8.49612 148.349L2.77439 132.426L0.123047 133.313C0.18805 131.591 0.274771 129.878 0.404815 128.178L5.76531 126.399L1.81358 116.32C2.16034 114.174 2.55048 112.05 2.99116 109.94L9.0163 125.314L17.2809 122.568L7.48471 93.5187C8.30107 91.1456 9.16802 88.7945 10.1 86.48L13.5315 96.6462L26.8968 91.9733L18.8921 68.4912C19.6434 67.1947 20.4164 65.913 21.2111 64.6458L30.1332 90.8379L59.4859 80.5545L44.3654 36.5786C45.6151 35.4141 46.8867 34.2714 48.1798 33.1581L63.9362 78.9944L74.8668 75.171L58.4818 28.5437L50.5638 31.1366C53.7353 28.5218 57.0152 26.0388 60.4107 23.717L60.5841 24.2077L68.5959 21.571L67.6857 19.0733C68.6826 18.4873 69.6868 17.9014 70.6911 17.3373L71.8541 20.5088L86.3319 15.7554L101.221 54.3697L123.213 50.3998L118.206 15.8724L109.768 16.8832L107.745 3.18657C108.858 2.93747 109.977 2.71045 111.097 2.49071L112.658 13.0452L119.304 12.2468L121.521 11.9319L119.998 1.06241C121.132 0.923257 122.266 0.798766 123.408 0.681528L124.91 11.4412L133.081 10.2693L131.397 0.124904C132.547 0.0809495 133.702 0.0516596 134.852 0.0296631L136.469 9.78584L149.408 7.92541L148.997 5.09817L148.982 5.01759L148.484 0.491124ZM37.3865 164.141L82.7124 148.122L75.6686 127.643C60.5407 133.298 45.4129 138.952 30.2778 144.607L37.3865 164.141ZM87.1771 146.591L98.2376 142.856L91.3239 121.79L80.09 125.988L87.1771 146.591ZM29.0929 141.355C32.38 140.131 35.6671 138.901 38.9469 137.671L35.3926 129.211L38.5424 127.856L42.1618 136.476L74.5489 124.37L69.6796 110.204L23.364 125.592L29.0929 141.355ZM78.9702 122.715L92.646 117.601L92.6821 117.587L125.662 106.219L120.836 93.2111L74.1587 108.717L78.9702 122.715ZM124.094 92.1271L138.182 130.141L150.268 126.339L151.829 125.907L142.234 86.8316L128.06 90.8088L124.094 92.1271ZM145.536 85.9087L155.13 124.991L166.776 121.769L160.483 83.5209L147.949 85.2348L145.536 85.9087ZM171.327 120.348L181.918 116.715L181.166 105.502L181.131 105.509L181.014 103.348H181.022L180.235 91.6876L167.036 94.2512L171.327 120.348ZM166.472 90.8379L179.744 88.2598L177.345 77.7858L164.167 76.365L164.811 80.7669L164.818 80.7596L166.472 90.8379ZM163.654 72.8272C169.145 73.4205 174.643 74.0065 180.133 74.5998L183.053 87.3735L208.063 78.9211L197.334 47.0818L161.596 58.7569L163.654 72.8272ZM200.593 46.0125L215.425 90.0397L241.093 80.3934L226.983 37.3843L216.616 40.7755L226.254 71.0766L222.996 72.1388L213.359 41.8376L200.593 46.0125ZM242.177 83.6894L216.53 93.321L223.603 114.327L235.089 110.402L231.015 96.8807L234.288 95.8698L238.334 109.296L249.344 105.531L242.177 83.6894ZM250.42 108.819L224.708 117.609L231.405 137.495L257.03 128.962L250.42 108.819ZM232.929 142.022L244.308 175.809L269.572 167.173L258.526 133.502L232.929 142.022ZM149.914 11.3606L137.033 13.2136L143.022 49.4257L155.404 48.9715L149.914 11.3606ZM155.91 52.4213L141.679 52.9414V52.9487L141.657 52.9414C136.801 53.1098 131.968 53.3223 127.114 53.4835L128.978 66.3452L158.128 67.6343L155.91 52.4213ZM158.641 71.1206L106.806 68.8354L110.931 79.529L122.158 76.3136L123.083 79.6463L112.181 82.7739L115.013 90.1129L126.666 86.2383L126.775 86.2017L147.002 80.5253L159.761 78.782L158.641 71.1206ZM111.747 91.1896L103.165 68.9379L79.252 77.3098L87.0182 99.4076L111.747 91.1896ZM83.7672 100.484L76.0227 78.4451L65.0633 82.2758L72.5983 104.198L83.7672 100.484ZM60.613 83.8359L14.6368 99.935L21.7674 121.081L68.1191 105.685L60.613 83.8359ZM78.1032 74.0357L86.657 71.0401L69.788 24.8302L61.7327 27.4743L78.1032 74.0357ZM89.8863 69.912L101.915 65.7005L84.3163 20.062L73.039 23.7609L89.8863 69.912ZM105.44 65.305L125.503 66.1913L123.711 53.835L102.493 57.6657L105.44 65.305ZM124.636 255.55L147.761 246.892L144.994 238.696L120.713 244.138L124.636 255.55ZM202.674 40.3068L199.524 30.4042L175.85 38.6734L177.142 48.6494L202.674 40.3068ZM173.834 49.7333L172.548 39.8307L172.382 39.8893L172.266 37.6334C170.872 26.8884 169.477 16.1507 168.083 5.41323L154.017 6.87811L160.895 53.9669L173.834 49.7333ZM156.09 128.325L166.559 159.71L176.268 156.384L167.541 125.153L156.09 128.325ZM163.322 160.822L152.789 129.24L151.17 129.694L139.388 133.4L151.106 165.013L163.322 160.822ZM152.825 169.473L160.05 187.674L184.035 180.328L181.52 171.891L169.6 175.544L168.618 172.22L180.531 168.572L178.204 160.764L152.825 169.473ZM181.449 159.651L197.501 213.501L201.026 223.087L225.337 216.818L215.027 182.847L218.3 181.844L228.653 215.961L240.19 212.987L229.166 183.118L206.409 151.096L181.449 159.651ZM209.797 149.932L231.34 180.247L241.064 176.921L229.679 143.112L209.797 149.932ZM228.162 138.594L217.874 108.058L202.948 113.17L214.167 143.391L228.162 138.594ZM210.917 144.504L199.697 114.283L185.92 119L196.945 149.294L210.917 144.504ZM193.701 150.408L182.684 120.114L172.049 123.754L180.74 154.853L193.701 150.408ZM56.8057 220.758L102.175 204.726L96.5978 188.502L51.7053 203.898L56.8057 220.758ZM103.295 207.993L84.5113 214.636L89.2938 232.712L62.6141 239.934L66.4865 252.737L114.948 241.882L103.295 207.993ZM61.6099 236.623L85.1037 230.259L81.2747 215.779L57.8099 224.07L61.6099 236.623ZM119.579 240.843L172.744 228.926L154.978 184.18L105.708 200.499L119.579 240.843ZM104.581 197.226L153.692 180.958L149.575 170.587L101.135 187.191L104.581 197.226ZM147.862 166.125L136.115 134.425L107.34 143.479L111.964 158.713L124.614 154.78L129.656 160.662L138.868 158.128L139.757 161.482C136 162.515 132.25 163.54 128.494 164.573L123.501 158.757L112.968 162.025L117.382 176.578L147.862 166.125ZM114.146 177.684L109.775 163.306L98.9745 166.675L97.9847 163.357L108.771 159.988L104.082 144.534L88.2969 149.859L99.5815 182.68L114.146 177.684ZM83.8394 151.396L38.5641 167.393L50.1954 199.371L95.0446 183.99L83.8394 151.396ZM34.0995 168.931L18.4658 174.153L30.2488 206.118L45.7235 200.895L34.0995 168.931ZM164.074 241.237L171.948 262.252L183.204 257.915L173.992 232.199L148.354 237.942L151.539 247.361L151.546 247.368V247.375L158.345 267.496L168.755 263.482L160.873 242.461L164.074 241.237ZM180.806 201.422L200.369 256.898L208.663 253.777L194.287 214.702L194.257 214.591L189.438 198.441L180.806 201.422ZM197.154 258.099L177.562 202.543L167.353 206.066L176.673 229.533L176.687 229.585L188.117 261.498L197.154 258.099ZM166.075 202.843L188.449 195.124L185.024 183.646L161.336 190.904L166.075 202.843ZM199.488 100.243L184.526 104.535L185.263 115.573L200.174 110.46L200.218 110.445V110.453L216.768 104.776L209.169 82.2025L183.602 90.8379L184.288 101.004L198.563 96.91L199.488 100.243ZM195.623 18.1356L174.151 25.5261L175.394 35.165L198.477 27.1008L195.623 18.1356ZM101.474 141.764L104.508 140.747L104.537 140.725L134.909 131.173L126.868 109.471L94.5388 120.612L96.9228 127.892L104.863 125.52L105.823 128.852L98.0066 131.188L101.474 141.764ZM139.576 49.5648L133.644 13.6972L121.594 15.4257L126.615 50.0336L134.144 49.7845L139.576 49.5648Z" fill="#FFF0BD"/>
<path fill-rule="evenodd" clip-rule="evenodd" d="M53.0624 165.042L42.3486 168.704L47.6368 183.726L58.8203 180.079L53.0624 165.042ZM250.808 61.5621L245.434 63.4445L248.093 71.2743L255.31 68.8353C253.879 66.367 252.383 63.9353 250.808 61.5621ZM194.466 69.956L179.165 75.1343L181.809 82.6419L197.58 77.4855L194.466 69.956ZM79.4171 155.563L65.4594 160.493L67.1427 166.558L81.5699 161.643L79.4171 155.563Z" fill="#FFF2C6"/>
<path fill-rule="evenodd" clip-rule="evenodd" d="M245.738 121.901L230.429 127.071L233.073 134.579L248.844 129.43L245.738 121.901Z" fill="#FFF2C6"/>
<path fill-rule="evenodd" clip-rule="evenodd" d="M52.6874 70.5852L39.0332 75.7708L41.4461 83.2711L55.5627 78.1001L52.6874 70.5852ZM45.882 51.4245L39.286 54.0321L44.1625 69.8015L51.2207 67.216L45.882 51.4245Z" fill="#FFF2C6"/>
<path fill-rule="evenodd" clip-rule="evenodd" d="M151.916 245.515C143.066 245.639 134.513 245.917 126.761 246.46C119.009 247.001 112.066 247.808 107.551 248.598C103.043 249.39 100.962 250.166 99.6547 251.183C98.3472 252.195 97.8125 253.447 98.5494 254.751C99.2863 256.063 101.295 257.432 109.697 258.296C118.113 259.167 132.923 259.541 147.719 259.014C162.521 258.486 177.31 257.066 185.199 255.71C193.088 254.355 194.085 253.06 194.345 251.69C194.605 250.313 194.136 248.854 191.477 247.808C188.811 246.76 183.949 246.122 176.941 245.786C169.934 245.441 160.773 245.397 151.916 245.515Z" fill="#CE9506"/>
<path d="M151.938 246.914C147.538 246.972 143.196 247.068 138.97 247.229C134.815 247.375 130.756 247.581 126.847 247.851C123.083 248.115 119.514 248.445 116.336 248.796C113.012 249.17 110.087 249.572 107.782 249.975C105.586 250.364 103.996 250.737 102.833 251.132C101.75 251.499 101.027 251.872 100.493 252.297C100.037 252.649 99.734 253 99.6256 253.338C99.5823 253.483 99.5823 253.638 99.6329 253.806L96.8443 253.894C96.8009 253.425 96.8587 252.964 96.9959 252.509C97.2777 251.594 97.9206 250.774 98.8165 250.071C99.5823 249.485 100.558 248.965 101.966 248.489C103.303 248.035 105.008 247.632 107.32 247.221C109.646 246.811 112.629 246.402 116.047 246.02C119.276 245.661 122.88 245.332 126.667 245.068C130.51 244.798 134.607 244.592 138.875 244.438C143.073 244.284 147.443 244.182 151.901 244.124C156.582 244.057 161.343 244.042 165.838 244.094C169.89 244.131 173.705 244.233 177.006 244.394C180.547 244.563 183.559 244.812 186.016 245.148C188.551 245.493 190.538 245.94 191.968 246.511C193.608 247.148 194.605 247.968 195.175 248.876C195.558 249.492 195.739 250.115 195.783 250.744L193.009 250.833C192.987 250.671 192.936 250.518 192.843 250.371C192.575 249.939 192.004 249.514 190.978 249.103C189.75 248.627 187.972 248.233 185.654 247.91C183.262 247.588 180.337 247.346 176.877 247.178C173.553 247.016 169.782 246.921 165.809 246.878C161.343 246.834 156.597 246.848 151.938 246.914Z" fill="#FFCF56"/>
<path fill-rule="evenodd" clip-rule="evenodd" d="M151.33 229.349C143.448 229.46 135.84 229.709 128.942 230.192C122.049 230.675 115.872 231.393 111.856 232.096C107.846 232.799 105.989 233.495 104.826 234.396C103.663 235.297 103.186 236.41 103.844 237.568C104.501 238.732 106.285 239.948 113.763 240.725C121.248 241.501 134.424 241.824 147.594 241.362C160.757 240.894 173.92 239.633 180.935 238.425C187.957 237.217 188.838 236.067 189.07 234.843C189.302 233.62 188.889 232.316 186.52 231.393C184.143 230.463 179.823 229.892 173.588 229.591C167.354 229.284 159.204 229.247 151.33 229.349Z" fill="#76C1F0"/>
<path d="M151.344 230.595C147.435 230.646 143.571 230.734 139.807 230.873C136.108 231.005 132.496 231.188 129.027 231.43C125.676 231.664 122.497 231.957 119.672 232.272C116.71 232.601 114.109 232.961 112.065 233.319C110.107 233.664 108.698 233.993 107.658 234.352C106.697 234.674 106.054 235.004 105.57 235.384C105.173 235.693 104.898 236.007 104.804 236.307C104.768 236.44 104.768 236.579 104.812 236.725L102.334 236.806C102.297 236.389 102.341 235.971 102.464 235.568C102.717 234.755 103.287 234.029 104.082 233.408C104.768 232.879 105.635 232.418 106.892 231.994C108.07 231.598 109.594 231.232 111.653 230.866C113.719 230.507 116.378 230.141 119.412 229.804C122.288 229.482 125.496 229.188 128.861 228.954C132.279 228.712 135.92 228.529 139.727 228.39C143.462 228.251 147.349 228.163 151.315 228.112C155.477 228.053 159.71 228.038 163.705 228.083C167.317 228.119 170.706 228.207 173.638 228.346C176.795 228.507 179.469 228.727 181.664 229.02C183.919 229.328 185.682 229.731 186.96 230.229C188.42 230.807 189.301 231.54 189.807 232.338C190.146 232.887 190.312 233.451 190.349 234L187.885 234.082C187.863 233.935 187.82 233.802 187.734 233.671C187.495 233.283 186.989 232.902 186.079 232.55C184.98 232.118 183.399 231.767 181.339 231.488C179.215 231.195 176.615 230.975 173.53 230.83C170.576 230.69 167.216 230.601 163.691 230.565C159.71 230.521 155.491 230.536 151.344 230.595Z" fill="#EBF7FF"/>
<path fill-rule="evenodd" clip-rule="evenodd" d="M182.206 203.297C182.423 210.774 183.015 223.659 183.658 235.971C184.295 248.291 184.981 260.047 185.399 267.181C185.523 269.231 166.962 286.818 164.42 287.015C156.075 287.681 143.729 288.055 134.778 287.857C125.82 287.667 120.264 286.913 117.035 286.429C113.798 285.953 112.895 285.748 112.317 283.617C111.732 281.485 111.479 277.428 110.793 266.492C110.114 255.556 109.001 237.744 108.156 225.409C107.304 213.076 106.711 206.205 106.841 201.927C106.964 197.649 107.816 195.958 112.194 194.148C116.565 192.346 124.469 190.435 135.002 188.853C145.528 187.263 158.691 185.997 166.847 185.792C175.004 185.579 178.161 186.415 179.909 187.572C181.658 188.729 181.997 190.201 182.083 191.974C182.163 193.745 181.997 195.818 182.206 203.297Z" fill="#FFB57F"/>
<path fill-rule="evenodd" clip-rule="evenodd" d="M182.207 203.297C182.309 206.894 182.504 211.742 182.749 217.176C180.069 216.048 176.962 215.624 173.603 215.485C169.789 215.338 165.642 215.572 162.571 215.866C159.502 216.159 157.507 216.518 156.077 216.151C154.639 215.792 153.772 214.709 152.595 213.303C151.425 211.888 149.936 210.153 150.283 208.116C150.629 206.08 152.804 203.751 156.308 201.304C159.812 198.873 164.645 196.332 169.03 195.057C173.422 193.79 177.36 193.79 181.16 194.515C181.477 194.573 181.789 194.639 182.099 194.713C182.092 196.405 182.085 198.932 182.207 203.297Z" fill="#F8A466"/>
<path fill-rule="evenodd" clip-rule="evenodd" d="M109.666 248.489C109.16 240.505 108.618 232.141 108.156 225.409C107.304 213.076 106.711 206.205 106.841 201.927C106.964 197.649 107.816 195.958 112.194 194.148C115.258 192.889 120.047 191.571 126.253 190.355C132.864 191.109 138.831 194.332 141.844 197.533C144.885 200.777 144.885 203.993 144.35 206.974C143.808 209.962 142.733 212.709 141.663 215.456C136.121 218.195 130.581 220.927 125.849 224.384C121.109 227.841 117.165 232.016 114.268 237.275C112.397 240.659 110.952 244.496 109.666 248.489Z" fill="#F8A466"/>
<path fill-rule="evenodd" clip-rule="evenodd" d="M108.035 76.1893L151.519 113.251C151.519 113.251 172.678 129.306 191.643 143.566C192.553 144.255 179.332 170.857 170.83 177.384C162.326 183.91 111.792 183.141 107.406 180.958C103.021 178.783 92.6685 149.287 89.367 137.546C86.0654 125.812 91.8088 93.3651 98.3325 85.9601C104.863 78.5625 108.035 76.1893 108.035 76.1893Z" fill="#FBD0A3"/>
<path fill-rule="evenodd" clip-rule="evenodd" d="M76.037 161.651C72.1503 152.803 71.7529 150.649 71.5001 148.518C71.2472 146.387 71.1388 144.292 71.4856 142.124C71.8251 139.963 72.6271 137.744 73.5662 136.154C74.5053 134.565 75.5891 133.598 76.6727 132.632C78.226 129.013 79.772 125.394 83.702 119.308C87.6321 113.214 93.9391 104.659 99.0178 99.6055C104.089 94.5444 107.926 92.9916 111.422 91.9808C114.926 90.97 118.083 90.5086 122.771 95.7383C127.461 100.968 133.68 111.889 136.108 129.585C138.542 147.281 137.17 171.744 133.507 184.972C129.844 198.199 123.87 200.185 117.014 201.078C110.151 201.972 102.399 201.774 94.647 201.576C87.2781 186.041 79.9165 170.499 76.037 161.651Z" fill="#F8A466"/>
<path fill-rule="evenodd" clip-rule="evenodd" d="M91.2523 189.087C91.982 196.236 95.1535 204.885 100.435 210.68C105.716 216.473 113.113 219.41 119.962 220.201C126.818 220.993 133.125 219.63 138.89 218.707C144.655 217.785 149.878 217.293 155.513 216.869C161.148 216.444 167.188 216.077 173.004 214.085C178.812 212.093 184.39 208.475 188.572 203.099C192.748 197.729 195.529 190.595 198.31 183.469C196.158 178.306 194.005 173.141 189.706 168.996C185.408 164.85 178.964 161.723 169.276 159.255C159.588 156.786 146.664 154.97 135.386 154.86C124.109 154.75 114.479 156.354 107.847 159.269C101.208 162.185 97.5737 166.418 94.9006 171.355C92.2277 176.291 90.5227 181.939 91.2523 189.087Z" fill="#FFB57F"/>
<path fill-rule="evenodd" clip-rule="evenodd" d="M91.2523 189.087C91.7868 194.301 93.6219 200.316 96.6273 205.443C97.2341 203.648 97.9783 201.904 98.8018 200.293C101.475 195.057 105.051 191.086 109.313 188.354C113.576 185.63 118.51 184.143 123.256 182.956C128.003 181.755 132.554 180.862 136.145 179.111C139.735 177.361 142.357 174.76 144.684 170.739C146.938 166.85 148.918 161.62 150.197 155.834C145.204 155.262 140.147 154.904 135.386 154.86C124.109 154.75 114.479 156.354 107.847 159.269C101.208 162.185 97.5737 166.418 94.9006 171.355C92.2277 176.291 90.5227 181.939 91.2523 189.087Z" fill="#F8A466"/>
<path fill-rule="evenodd" clip-rule="evenodd" d="M87.5077 118.245C84.9069 116.019 80.9841 112.254 78.2099 108.98C75.443 105.706 73.8318 102.93 74.1065 98.7257C74.3882 94.5215 76.5555 88.889 80.8901 86.8309C85.2175 84.7727 91.7123 86.2816 94.8622 87.9881C98.012 89.7021 97.8169 91.599 97.7447 96.023C97.6797 100.447 97.7375 107.383 97.6218 111.946C97.5063 116.517 97.2173 118.699 96.3721 119.952C95.5196 121.204 94.0963 121.527 92.7526 121.344C91.4017 121.16 90.1157 120.472 87.5077 118.245Z" fill="#F8A466"/>
<path fill-rule="evenodd" clip-rule="evenodd" d="M77.7116 142.504C75.4648 139.911 73.6803 133.239 72.9218 128.777C72.1561 124.325 72.4017 122.09 72.6401 120.457C72.893 118.816 73.1313 117.769 74.1211 115.755C75.1037 113.733 76.8302 110.745 79.5466 108.943C82.2631 107.149 85.9691 106.555 89.6752 105.955C91.727 107.053 93.786 108.152 94.5806 109.632C95.3753 111.111 94.8985 112.964 94.1833 117.33C93.4752 121.687 92.5216 128.558 91.7414 133.055C90.9612 137.552 90.3616 139.677 89.3356 140.782C88.3098 141.895 86.8649 141.999 84.7771 142.796C82.6965 143.603 79.9656 145.096 77.7116 142.504Z" fill="#F8A466"/>
<path fill-rule="evenodd" clip-rule="evenodd" d="M99.4663 99.3481C93.9902 94.9241 84.8947 85.2925 78.2121 77.6385C71.5367 69.9845 67.2743 64.3081 64.493 60.2209C61.7115 56.134 60.4111 53.6216 60.1583 50.8969C59.9054 48.165 60.7001 45.2132 62.4267 43.3455C64.1534 41.4777 66.8047 40.7014 69.1959 40.5695C71.5945 40.4449 73.7257 40.9797 76.9767 43.5506C80.2276 46.1214 84.5984 50.7432 90.0311 56.273C95.4567 61.8104 101.944 68.2631 106.972 73.273C112.001 78.2903 115.562 81.8646 117.361 84.7505C119.167 87.6362 119.211 89.8336 118.242 92.3752C117.267 94.9241 115.288 97.8099 113.518 99.5091C111.748 101.194 110.202 101.692 108.497 102.336C106.792 102.981 104.935 103.772 99.4663 99.3481Z" fill="#F8A466"/>
<path fill-rule="evenodd" clip-rule="evenodd" d="M93.7158 15.0149H178.313C182.749 15.0149 186.376 18.4134 186.376 22.5737V175.105C186.376 179.258 182.749 182.657 178.313 182.657H93.7158C89.2801 182.657 85.6533 179.258 85.6533 175.105V22.5737C85.6533 18.4134 89.2801 15.0149 93.7158 15.0149Z" fill="#24435E"/>
<path fill-rule="evenodd" clip-rule="evenodd" d="M96.9148 21.5773H175.119C177.748 21.5773 179.909 23.7599 179.909 26.4334V164.763C179.909 167.435 177.748 169.619 175.119 169.619H96.9148C94.2778 169.619 92.125 167.435 92.125 164.763V26.4334C92.125 23.7599 94.2778 21.5773 96.9148 21.5773Z" fill="#E3F4FF"/>
<path fill-rule="evenodd" clip-rule="evenodd" d="M179.909 26.7337L160.851 32.9888L172.345 66.7398L179.909 64.0956V66.6959L161.379 73.1853L166.428 88.1564L179.909 83.6812V87.2482L167.555 91.3499L171.615 102.52C173.942 101.648 176.268 100.776 178.595 99.9048L176.073 93.9208L178.305 92.9612L179.909 96.77V102.036L172.454 104.819L177.482 118.655L179.909 117.798V120.391L178.319 120.955L179.909 125.313V135.099L175.162 122.047L164.087 125.738L172.432 148.377L179.909 145.85V149.418L156.415 157.351L159.399 166.227L179.909 161.533V164.045L160.186 168.564L160.54 169.619H157.983L157.809 169.106L155.577 169.619H144.581L157.021 166.77L154.118 158.127L137.517 163.737L139.568 169.619H137.004L135.219 164.514L120.105 169.619H109.55L110.345 169.348L106.935 158.449L99.9202 160.499L92.2551 154.67L92.125 154.274V147.162L102.34 143.756C99.3567 134.205 96.7126 125.767 93.7577 116.319L92.125 116.876V113.308L92.2912 113.25L92.125 112.752V102.168L95.4556 112.173L99.9707 110.635L92.125 86.9551V79.2499L94.09 85.1754C105.714 80.8393 99.5662 83.1318 112.021 78.4882L102.521 52.3033L92.125 55.7531V53.1676L97.2615 51.4611L94.5596 43.7631L92.125 44.5394V41.9686L93.7433 41.4486L92.125 36.8342V29.6416L113.675 22.3391L113.423 21.5774H126.456L117.013 24.7708L122.887 42.9573L133.139 39.5588L127.337 21.5774H129.887L135.443 38.7898L145.159 35.5671L140.442 21.5773H143.975L148.338 34.5196C158.554 31.165 154.169 32.6006 163.574 29.517L160.851 21.5773H163.408L165.879 28.7626L171.998 26.7484L170.098 21.5773H172.684L174.303 25.994L179.425 24.3093C179.736 24.954 179.909 25.6717 179.909 26.4334V26.7337ZM99.299 21.5774L100.072 23.533L97.8253 24.4413L96.6838 21.5847C96.7632 21.5774 96.8355 21.5774 96.915 21.5774H99.299ZM97.6664 169.619H96.9149C94.278 169.619 92.1251 167.435 92.1251 164.763V164.074L97.6664 169.619ZM160.591 70.8561L170.055 67.5455L158.547 33.7505L149.125 36.8414L160.591 70.8561ZM145.947 37.8889C124.093 45.14 140.312 39.7639 126.845 44.2318C133.362 62.5723 137.039 72.9142 145.001 95.3343C177.236 84.3624 121.412 103.113 155.093 91.9212L144.776 67.2965L147.03 66.3956L157.397 91.1595L163.249 89.2112C152.933 58.6244 152.983 58.7561 145.947 37.8889ZM141.959 99.9048L151.618 127.313L174.317 119.739L164.377 92.4046L155.273 95.4296L157.109 100.527L154.833 101.362L152.977 96.1914C149.292 97.4145 145.636 98.6524 141.959 99.9048ZM93.2811 32.8131L99.5663 50.6994L120.582 43.7192C116.703 31.7071 118.371 36.8854 114.716 25.5545L93.2811 32.8131ZM134.106 161.328L126.102 138.416L105.375 145.331L108.532 155.431L114.795 153.593L113.387 149.454L115.677 148.657L118.884 158.047L116.587 158.844L115.59 155.922L109.262 157.767L112.643 168.571L134.106 161.328ZM170.135 149.154L166.487 139.274L160.923 141.376L160.078 139.076L165.64 136.967L161.782 126.507L152.449 129.62C155.209 137.194 157.968 144.76 160.728 152.333L170.135 149.154ZM158.43 153.109L154.515 142.357L148.959 144.028L149.747 146.532L147.442 147.28L146.272 143.558L145.059 139.691L147.364 138.951L148.223 141.676L153.67 140.042L150.152 130.389L128.407 137.648L136.404 160.55L158.43 153.109ZM118.697 107.83L124.432 125.504L130.27 123.555L131.022 125.892L125.191 127.84L127.619 135.319L149.313 128.082L139.661 100.688L135.117 102.241C136.765 107.222 141.294 120.889 142.942 125.878C134.013 129.086 129.128 128.236 139.893 124.368C137.546 117.293 136.533 114.231 132.82 103.018L118.697 107.83ZM142.703 96.1181L124.542 44.9936L113.271 48.7363L120.849 69.0909L118.581 69.9553L110.966 49.4981L104.826 51.5343L123.37 102.666L129.894 100.447L123.125 82.0698L125.394 81.2128L132.199 99.663L142.703 96.1181ZM121.073 103.45L112.859 80.7953L104.378 83.9522L111.869 106.585L121.073 103.45ZM109.579 107.361L102.102 84.8018L94.8633 87.5045L102.268 109.851L109.579 107.361ZM96.0552 115.535C101.654 133.437 96.5899 117.249 101.755 133.773L117.418 127.898L118.256 130.205L102.492 136.109L104.638 142.987L125.314 136.087C122.229 126.581 120.12 120.084 116.399 108.614L96.0552 115.535ZM93.1076 149.425L94.3214 153.168L100.412 157.805L106.206 156.105L103.077 146.1L93.1076 149.425Z" fill="#B8E1FD"/>
<path fill-rule="evenodd" clip-rule="evenodd" d="M177.771 113.36L179.295 113.213V118.135L178.204 118.245L177.771 113.36Z" fill="#CAC9C6"/>
<path fill-rule="evenodd" clip-rule="evenodd" d="M84.0925 84.4654C87.264 83.2421 90.9411 82.9712 93.9898 83.4619C97.0386 83.9526 99.4588 85.1977 101.763 86.2232C104.061 87.2485 106.242 88.0542 107.832 89.0577C109.421 90.0611 110.425 91.2697 110.96 92.8297C111.495 94.3753 111.56 96.2722 111.162 98.1473C110.75 100.03 109.876 101.89 108.323 103.26C106.77 104.637 104.53 105.523 102.023 105.677C99.5238 105.831 96.7569 105.245 94.2066 104.351C91.6709 103.465 89.3447 102.256 87.6902 101.517C86.0287 100.777 85.0244 100.506 83.5073 100.506C81.9974 100.506 79.9745 100.769 78.4286 101.377C76.8825 101.978 75.9289 102.857 74.8525 103.802C74.4262 102.718 73.8771 100.806 74.0217 98.4989C74.1662 96.199 74.8742 93.1227 76.5646 90.4932C78.2552 87.8712 80.921 85.6958 84.0925 84.4654Z" fill="#FFB57F"/>
<path fill-rule="evenodd" clip-rule="evenodd" d="M93.8655 91.189C94.4652 89.834 95.7583 88.7061 97.391 88.4278C99.0165 88.1494 100.974 88.7134 102.737 89.3287C104.5 89.944 106.06 90.6104 106.999 91.0645C107.946 91.5187 108.271 91.7604 108.416 92.4342C108.567 93.1008 108.538 94.192 108.025 95.6204C107.52 97.0559 106.53 98.8211 105.807 99.8831C105.078 100.945 104.623 101.297 104.182 101.458C103.734 101.612 103.315 101.568 101.913 101.011C100.519 100.44 98.1423 99.3558 96.5674 98.3817C94.9925 97.4075 94.2195 96.5505 93.7932 95.3347C93.3525 94.1188 93.2587 92.5367 93.8655 91.189Z" fill="#FFD29F"/>
<path fill-rule="evenodd" clip-rule="evenodd" d="M190.825 268.492C190.818 267.576 190.803 266.456 190.781 265.049C190.681 258.589 190.515 246.3 190.347 234.001C189.661 234.719 188.975 235.444 187.885 236.154C186.787 236.873 185.283 237.583 183.131 238.14C180.971 238.696 178.168 239.092 174.606 239.546C171.038 239.985 166.717 240.483 162.844 240.761C158.979 241.041 155.563 241.099 152.723 241.179C149.884 241.253 147.623 241.348 143.201 241.391C138.787 241.435 132.213 241.435 126.253 241.215C120.3 241.003 114.961 240.579 111.407 240.044C107.86 239.509 106.111 238.865 105.042 238.403C103.973 237.942 103.59 237.664 103.251 237.429C102.911 237.195 102.622 236.997 102.333 236.806C102.745 248.525 103.157 260.252 103.453 266.47C103.489 267.225 103.525 267.892 103.561 268.492H190.825Z" fill="#C9EAFF"/>
<path d="M104.811 236.726C104.833 236.799 104.862 236.879 104.905 236.953C105.108 237.319 105.541 237.707 106.668 238.125C108.048 238.645 110.266 239.114 113.885 239.488C117.714 239.882 123.045 240.161 129.1 240.278C134.814 240.389 141.179 240.344 147.551 240.117C153.793 239.897 160.092 239.495 165.757 238.988C171.854 238.454 177.128 237.817 180.732 237.195C184.106 236.623 185.964 236.074 186.989 235.539C187.661 235.18 187.812 234.895 187.871 234.609C187.9 234.434 187.913 234.25 187.885 234.082L187.878 234.045L190.349 233.972V234.001C190.377 234.367 190.349 234.719 190.276 235.07C190.095 236.016 189.69 236.908 188.108 237.744C186.88 238.389 184.785 239.019 181.137 239.648C177.438 240.285 172.093 240.93 165.966 241.472C160.36 241.962 154.024 242.373 147.63 242.6C141.23 242.827 134.829 242.863 129.064 242.754C122.923 242.643 117.526 242.358 113.647 241.955C109.782 241.56 107.369 241.032 105.823 240.461C104.024 239.787 103.229 238.981 102.781 238.183C102.521 237.722 102.377 237.261 102.333 236.806L102.326 236.726L104.797 236.689L104.811 236.726Z" fill="#EBF7FF"/>
<path fill-rule="evenodd" clip-rule="evenodd" d="M136.013 15.2498C139.785 15.2498 142.869 18.3773 142.869 22.1933C142.869 26.0167 139.785 29.1369 136.013 29.1369C132.25 29.1369 129.164 26.0167 129.164 22.1933C129.164 18.3773 132.25 15.2498 136.013 15.2498Z" fill="#24435E"/>
<path fill-rule="evenodd" clip-rule="evenodd" d="M136.013 18.436C138.064 18.436 139.726 20.1206 139.726 22.1935C139.726 24.2736 138.064 25.9509 136.013 25.9509C133.968 25.9509 132.307 24.2736 132.307 22.1935C132.307 20.1206 133.968 18.436 136.013 18.436Z" fill="#3E6587"/>
<path fill-rule="evenodd" clip-rule="evenodd" d="M136.014 19.7986C137.321 19.7986 138.383 20.8679 138.383 22.1936C138.383 23.5194 137.321 24.5887 136.014 24.5887C134.713 24.5887 133.651 23.5194 133.651 22.1936C133.651 20.8679 134.713 19.7986 136.014 19.7986Z" fill="#24435E"/>
<path fill-rule="evenodd" clip-rule="evenodd" d="M195.795 279.272C195.787 252.839 195.787 251.111 195.78 250.744C188.433 258.442 163.638 258.545 153.488 258.808C142.059 259.116 106.429 260.544 97.8749 254.597C97.4992 254.333 97.1668 254.114 96.8418 253.894C96.9573 257.146 97.0729 260.236 97.1813 283.894C112.172 287.278 126.722 289 143.844 289C160.972 289 179.663 285.55 195.795 279.272Z" fill="#FDB706"/>
<path d="M99.6309 253.806C99.6526 253.888 99.6886 253.975 99.7392 254.063C99.9703 254.473 100.454 254.905 101.719 255.381C103.272 255.961 105.764 256.488 109.832 256.913C114.137 257.359 120.127 257.667 126.932 257.799C133.354 257.916 140.514 257.872 147.673 257.623C154.688 257.374 161.768 256.913 168.133 256.355C174.989 255.748 180.92 255.03 184.973 254.342C188.758 253.683 190.853 253.067 192.003 252.466C192.753 252.071 192.926 251.748 192.992 251.426C193.028 251.228 193.043 251.023 193.006 250.833V250.796L195.773 250.709L195.78 250.745C195.802 251.148 195.773 251.551 195.694 251.946C195.499 253.001 195.043 254.012 193.266 254.949C191.879 255.674 189.532 256.386 185.428 257.089C181.267 257.806 175.256 258.538 168.371 259.14C162.071 259.696 154.948 260.157 147.76 260.406C140.572 260.662 133.369 260.706 126.889 260.582C119.989 260.457 113.921 260.143 109.564 259.688C105.223 259.242 102.506 258.648 100.765 258.004C98.7422 257.249 97.8536 256.348 97.3479 255.44C97.0517 254.92 96.8928 254.407 96.8422 253.895L96.835 253.806L99.6163 253.763L99.6309 253.806Z" fill="#FFCF56"/>
<path fill-rule="evenodd" clip-rule="evenodd" d="M172.691 105.465C170.365 105.465 168.479 103.553 168.479 101.195C168.479 98.8363 170.365 96.9247 172.691 96.9247C175.018 96.9247 176.903 98.8363 176.903 101.195C176.903 103.553 175.018 105.465 172.691 105.465Z" fill="white"/>
<path fill-rule="evenodd" clip-rule="evenodd" d="M173.148 103.523H172.237V101.655H170.396V100.732H172.237V98.8647H173.148V100.732H174.99V101.655H173.148V103.523Z" fill="#808080"/>
<path fill-rule="evenodd" clip-rule="evenodd" d="M172.691 116.356C170.365 116.356 168.479 114.444 168.479 112.085C168.479 109.727 170.365 107.815 172.691 107.815C175.018 107.815 176.903 109.727 176.903 112.085C176.903 114.444 175.018 116.356 172.691 116.356Z" fill="white"/>
<path fill-rule="evenodd" clip-rule="evenodd" d="M170.373 112.547V111.617C173.696 111.617 171.688 111.617 175.012 111.617V112.547C171.688 112.547 173.696 112.547 170.373 112.547Z" fill="#808080"/>
<path fill-rule="evenodd" clip-rule="evenodd" d="M172.691 34.0948C170.365 34.0948 168.479 32.1832 168.479 29.8247C168.479 27.4662 170.365 25.5545 172.691 25.5545C175.018 25.5545 176.903 27.4662 176.903 29.8247C176.903 32.1832 175.018 34.0948 172.691 34.0948Z" fill="white"/>
<path fill-rule="evenodd" clip-rule="evenodd" d="M172.691 60.2435C170.365 60.2435 168.479 58.3317 168.479 55.9733C168.479 53.6148 170.365 51.7032 172.691 51.7032C175.018 51.7032 176.903 53.6148 176.903 55.9733C176.903 58.3317 175.018 60.2435 172.691 60.2435Z" fill="white"/>
<path fill-rule="evenodd" clip-rule="evenodd" d="M172.691 49.2343C170.365 49.2343 168.479 47.3227 168.479 44.9642C168.479 42.6057 170.365 40.694 172.691 40.694C175.018 40.694 176.903 42.6057 176.903 44.9642C176.903 47.3227 175.018 49.2343 172.691 49.2343Z" fill="white"/>
<path d="M172.924 42.5261L175.004 46.95L172.692 46.1297L170.388 46.95L172.692 42.028L172.924 42.5261ZM174.007 46.0418L172.692 43.2439L171.377 46.0418L172.692 45.5804L174.007 46.0418Z" fill="#808080"/>
<path d="M171.11 53.6289H171.84V54.149H171.11C171.046 54.149 170.995 54.171 170.959 54.2149H170.951C170.915 54.2515 170.893 54.3102 170.893 54.3687V55.1085H170.373V54.3687C170.373 54.1637 170.46 53.9805 170.59 53.8413C170.727 53.7096 170.908 53.6289 171.11 53.6289ZM172.692 54.8742C172.995 54.8742 173.263 54.9914 173.466 55.1965C173.661 55.3941 173.784 55.6725 173.784 55.9727C173.784 56.2804 173.661 56.5588 173.466 56.7566C173.263 56.9543 172.995 57.0788 172.692 57.0788C172.397 57.0788 172.121 56.9543 171.926 56.7566C171.725 56.5588 171.601 56.2804 171.601 55.9727C171.601 55.6725 171.725 55.3941 171.926 55.1965C172.121 54.9914 172.397 54.8742 172.692 54.8742ZM173.097 55.5627C172.995 55.4601 172.851 55.3943 172.692 55.3943C172.534 55.3943 172.389 55.4601 172.287 55.5627C172.187 55.6652 172.121 55.8117 172.121 55.9729C172.121 56.134 172.187 56.2804 172.287 56.3903C172.389 56.4929 172.534 56.5588 172.692 56.5588C172.851 56.5588 172.995 56.4929 173.097 56.3903C173.205 56.2804 173.271 56.134 173.271 55.9729C173.271 55.8117 173.205 55.6652 173.097 55.5627ZM173.552 53.6289H174.282C174.484 53.6289 174.665 53.7096 174.795 53.8414C174.932 53.9806 175.012 54.1637 175.012 54.3688V55.1085H174.499V54.3688C174.499 54.3101 174.47 54.2515 174.433 54.2149C174.391 54.171 174.34 54.149 174.282 54.149H173.552V53.6289ZM175.012 56.8445V57.5842C175.012 57.7892 174.932 57.9724 174.795 58.1042C174.665 58.2433 174.484 58.324 174.282 58.324H173.552V57.8039H174.282C174.34 57.8039 174.39 57.7746 174.433 57.738C174.47 57.7014 174.499 57.6428 174.499 57.5842V56.8445H175.012ZM171.84 58.324H171.11C170.908 58.324 170.727 58.2433 170.59 58.1042C170.46 57.9724 170.373 57.7893 170.373 57.5842V56.8445H170.893V57.5842C170.893 57.6428 170.915 57.7014 170.959 57.738C170.995 57.7745 171.046 57.8039 171.11 57.8039H171.84V58.324Z" fill="#808080"/>
<path fill-rule="evenodd" clip-rule="evenodd" d="M172.692 27.2325C173.017 27.2325 173.284 27.4962 173.284 27.8331C173.284 28.1627 173.017 28.4263 172.692 28.4263C172.368 28.4263 172.1 28.1627 172.1 27.8331C172.1 27.496 172.368 27.2325 172.692 27.2325ZM172.692 31.2243C173.017 31.2243 173.284 31.4953 173.284 31.8249C173.284 32.1618 173.017 32.4254 172.692 32.4254C172.368 32.4254 172.1 32.1618 172.1 31.8249C172.1 31.4953 172.368 31.2243 172.692 31.2243ZM172.692 29.232C173.017 29.232 173.284 29.4957 173.284 29.8253C173.284 30.1623 173.017 30.4259 172.692 30.4259C172.368 30.4259 172.1 30.1623 172.1 29.8253C172.1 29.4957 172.368 29.232 172.692 29.232Z" fill="#808080"/>
<path fill-rule="evenodd" clip-rule="evenodd" d="M92.1251 73.5085L93.346 77.2733C93.5049 77.7859 93.9168 78.1449 94.4442 78.2255C94.9715 78.3133 95.4627 78.1082 95.7806 77.6762L104.435 65.774C104.717 65.3784 104.782 64.9169 104.623 64.4555L101.82 56.5891C101.567 55.8859 100.823 55.505 100.115 55.7248L92.125 58.1492L92.1251 73.5085Z" fill="#A4E043"/>
<path fill-rule="evenodd" clip-rule="evenodd" d="M158.683 21.5773L160.555 26.8435C160.692 27.2171 160.67 27.5834 160.497 27.9423C160.324 28.2938 160.048 28.5355 159.681 28.6601L150.852 31.5532C150.13 31.7876 149.356 31.3994 149.111 30.6742L146.019 21.5773H158.683Z" fill="#A4E043"/>
<path fill-rule="evenodd" clip-rule="evenodd" d="M154.422 124.391L164.101 121.154C164.463 121.029 164.738 120.795 164.911 120.443C165.077 120.099 165.107 119.733 164.983 119.367L162.375 111.493C162.159 110.841 161.537 110.519 160.866 110.548L149.878 110.973C149.444 110.988 149.097 111.266 148.88 111.647C148.657 112.028 148.62 112.445 148.765 112.855L152.681 123.541C152.94 124.252 153.706 124.626 154.422 124.391Z" fill="#A4E043"/>
<path fill-rule="evenodd" clip-rule="evenodd" d="M168.206 160.962L170.222 161.05L170.164 162.595H168.142L168.206 160.962Z" fill="#FCFBFB"/>
<path fill-rule="evenodd" clip-rule="evenodd" d="M100.744 121.153H171.291C173.408 121.153 175.134 122.904 175.134 125.05V161.211C175.134 163.357 173.408 165.108 171.291 165.108H100.744C98.6274 165.108 96.8936 163.357 96.8936 161.211V125.05C96.8936 122.904 98.6274 121.153 100.744 121.153Z" fill="white"/>
<path fill-rule="evenodd" clip-rule="evenodd" d="M131.406 122.742H140.624C141.058 122.742 141.405 123.095 141.405 123.533C141.405 123.965 141.058 124.317 140.624 124.317H131.406C130.98 124.317 130.633 123.965 130.633 123.533C130.633 123.095 130.98 122.742 131.406 122.742Z" fill="#CCCCCC"/>
<path d="M175.134 143.625H96.8936V144.328H175.134V143.625Z" fill="#E3E3E3"/>
<path fill-rule="evenodd" clip-rule="evenodd" d="M143.75 155.93C144.118 155.93 144.422 156.179 144.523 156.515H147.289C147.492 156.515 147.68 156.428 147.809 156.296C147.948 156.157 148.027 155.967 148.027 155.761C148.027 155.556 147.948 155.373 147.809 155.234C147.68 155.102 147.492 155.014 147.289 155.014H146.488C146.415 155.234 146.249 155.418 146.033 155.49C145.939 155.534 145.838 155.549 145.729 155.549C145.382 155.549 145.086 155.329 144.979 155.014H144.234C143.88 155.014 143.562 154.868 143.331 154.633C143.099 154.399 142.955 154.077 142.955 153.718C142.955 153.359 143.099 153.036 143.331 152.802C143.562 152.568 143.88 152.422 144.234 152.422H147.03C147.152 152.128 147.435 151.916 147.774 151.916C148.214 151.916 148.568 152.282 148.568 152.729C148.568 153.176 148.214 153.543 147.774 153.543C147.413 153.543 147.109 153.3 147.008 152.971H144.234C144.032 152.971 143.844 153.051 143.714 153.191C143.577 153.323 143.497 153.512 143.497 153.718C143.497 153.923 143.577 154.114 143.714 154.246C143.844 154.384 144.032 154.466 144.234 154.466H144.979C145.086 154.157 145.382 153.93 145.729 153.93C146.076 153.93 146.373 154.157 146.488 154.466H147.289C147.643 154.466 147.962 154.611 148.193 154.846C148.424 155.08 148.568 155.41 148.568 155.761C148.568 156.121 148.424 156.442 148.193 156.684C147.962 156.918 147.643 157.065 147.289 157.065H144.486C144.364 157.351 144.083 157.549 143.75 157.549C143.309 157.549 142.955 157.189 142.955 156.742C142.955 156.29 143.309 155.93 143.75 155.93Z" fill="#808080"/>
<path fill-rule="evenodd" clip-rule="evenodd" d="M168.676 130.133C169.067 130.133 169.384 130.447 169.384 130.843C169.384 131.231 169.067 131.553 168.676 131.553C168.293 131.553 167.976 131.231 167.976 130.843C167.976 130.447 168.293 130.133 168.676 130.133ZM168.676 134.872C169.067 134.872 169.384 135.194 169.384 135.582C169.384 135.977 169.067 136.293 168.676 136.293C168.293 136.293 167.976 135.977 167.976 135.582C167.976 135.194 168.293 134.872 168.676 134.872ZM168.676 132.498C169.067 132.498 169.384 132.821 169.384 133.216C169.384 133.604 169.067 133.926 168.676 133.926C168.293 133.926 167.976 133.604 167.976 133.216C167.976 132.821 168.293 132.498 168.676 132.498Z" fill="#808080"/>
<path d="M107.354 151.278L110.294 154.259C110.345 154.318 110.381 154.384 110.41 154.457C110.446 154.545 110.468 154.641 110.468 154.735C110.468 154.831 110.446 154.926 110.41 155.013C110.374 155.102 110.323 155.182 110.258 155.255L107.354 158.192C107.289 158.258 107.209 158.317 107.123 158.354C107.036 158.39 106.942 158.405 106.848 158.405C106.754 158.405 106.66 158.39 106.567 158.347C106.523 158.332 106.48 158.31 106.436 158.281L106.429 158.288L103.344 155.153L103.352 155.146C103.323 155.102 103.301 155.058 103.279 155.013C103.243 154.926 103.222 154.831 103.222 154.735C103.222 154.641 103.243 154.545 103.279 154.457C103.316 154.37 103.366 154.288 103.438 154.216L106.335 151.278C106.408 151.205 106.487 151.154 106.567 151.117C106.66 151.08 106.754 151.066 106.848 151.066C106.942 151.066 107.036 151.08 107.123 151.117C107.188 151.147 107.253 151.191 107.311 151.234H107.318L107.354 151.278ZM109.76 154.728L106.855 151.783L106.848 151.776C106.827 151.783 103.937 154.721 103.93 154.735V154.743L106.841 157.687C106.841 157.687 106.841 157.687 106.848 157.687C106.863 157.687 109.76 154.75 109.76 154.735C109.76 154.728 109.76 154.728 109.76 154.728ZM105.606 155.907V154.684C105.606 154.523 105.663 154.384 105.765 154.281C105.866 154.179 106.01 154.112 106.162 154.112H107.433V153.461L108.568 154.501L107.433 155.542V154.743H106.22V155.907H105.606Z" fill="#808080"/>
<path d="M126.71 151.074C127.707 151.074 128.61 151.485 129.267 152.151C129.917 152.811 130.322 153.726 130.322 154.736C130.322 155.747 129.917 156.662 129.267 157.322C128.61 157.988 127.707 158.399 126.71 158.399C125.712 158.399 124.809 157.988 124.159 157.322C123.502 156.662 123.104 155.747 123.104 154.736C123.104 153.726 123.502 152.811 124.159 152.151C124.809 151.485 125.712 151.074 126.71 151.074ZM126.312 154.29H127.107V156.575H126.312V154.29ZM126.312 152.898H127.107V153.77H126.312V152.898ZM128.776 152.642C128.249 152.108 127.519 151.777 126.71 151.777C125.908 151.777 125.178 152.108 124.65 152.642C124.123 153.176 123.791 153.916 123.791 154.736C123.791 155.55 124.123 156.29 124.65 156.831C125.178 157.365 125.908 157.696 126.71 157.696C127.519 157.696 128.249 157.365 128.776 156.831C129.303 156.29 129.628 155.55 129.628 154.736C129.628 153.916 129.303 153.176 128.776 152.642Z" fill="#808080"/>
<path d="M162.094 151.865H167.432C167.678 151.865 167.902 151.968 168.061 152.129C168.227 152.297 168.328 152.517 168.328 152.766V155.125C168.184 155.095 167.996 155.08 167.888 155.08C167.771 155.08 167.736 155.087 167.663 155.095V153.483H161.862V157.365C161.862 157.432 161.891 157.49 161.928 157.534C161.97 157.578 162.028 157.607 162.094 157.607H165.583C165.583 157.834 165.612 158.061 165.676 158.274H162.094C161.848 158.274 161.631 158.172 161.465 158.003C161.306 157.841 161.205 157.614 161.205 157.365V152.766C161.205 152.517 161.306 152.297 161.465 152.129C161.631 151.968 161.848 151.865 162.094 151.865ZM168.321 156.268C168.501 156.326 168.667 156.421 168.806 156.553L169.267 156.333C169.326 156.304 169.397 156.333 169.434 156.391L169.694 156.846C169.722 156.904 169.708 156.978 169.651 157.022L169.238 157.314C169.26 157.41 169.267 157.498 169.267 157.6C169.267 157.696 169.26 157.79 169.238 157.879L169.651 158.179C169.708 158.215 169.722 158.288 169.694 158.355L169.434 158.802C169.397 158.867 169.326 158.889 169.267 158.86L168.806 158.648C168.667 158.771 168.501 158.867 168.321 158.926L168.278 159.438C168.271 159.505 168.213 159.563 168.147 159.563H167.627C167.563 159.563 167.505 159.505 167.497 159.438L167.446 158.926C167.273 158.867 167.107 158.771 166.97 158.648L166.508 158.86C166.443 158.889 166.37 158.867 166.342 158.802L166.081 158.355C166.045 158.288 166.059 158.215 166.118 158.179L166.53 157.879C166.515 157.79 166.501 157.696 166.501 157.6C166.501 157.498 166.515 157.41 166.53 157.314L166.118 157.022C166.059 156.978 166.045 156.904 166.081 156.846L166.342 156.391C166.37 156.333 166.443 156.304 166.508 156.333L166.97 156.553C167.107 156.421 167.273 156.326 167.446 156.268L167.497 155.754C167.505 155.688 167.563 155.637 167.627 155.637H168.147C168.213 155.637 168.271 155.688 168.278 155.754L168.321 156.268ZM168.401 157.08C168.271 156.949 168.09 156.86 167.888 156.86C167.685 156.86 167.505 156.949 167.375 157.08C167.244 157.212 167.158 157.394 167.158 157.6C167.158 157.798 167.244 157.981 167.375 158.121C167.505 158.252 167.685 158.333 167.888 158.333C168.09 158.333 168.271 158.252 168.401 158.121C168.53 157.981 168.61 157.798 168.61 157.6C168.61 157.394 168.53 157.212 168.401 157.08Z" fill="#808080"/>
<path fill-rule="evenodd" clip-rule="evenodd" d="M121.493 129.502L120.741 129.804L121.723 131.949L122.497 131.795V131.773L122.707 131.429C122.041 130.176 121.804 129.869 121.493 129.502Z" fill="#5EBAEB"/>
<path fill-rule="evenodd" clip-rule="evenodd" d="M120.842 129.277C121.131 129.423 121.76 130.448 122.251 131.437L122.705 131.429C122.764 131.429 122.822 131.467 122.844 131.525C123.06 132.089 123.24 132.881 123.378 133.722C123.616 133.847 123.689 133.994 123.689 134.316C123.689 134.857 123.645 135.715 123.486 136.081C123.364 136.359 123.125 136.565 122.749 136.565H104.349H103.749H103.54C102.832 136.565 102.716 136.036 102.6 135.106C102.572 134.865 102.557 134.63 102.564 134.411C102.572 134.294 102.658 134.205 102.774 134.205H102.781C102.861 133.437 103.236 132.806 104.161 132.448C105.526 131.913 106.986 131.898 108.134 131.833L110.511 129.811C111.075 129.335 111.689 129.1 112.418 129.079C113.35 129.049 120.365 129.049 120.842 129.277Z" fill="#FFBB1C"/>
<path fill-rule="evenodd" clip-rule="evenodd" d="M106.589 132.748L121.593 132.147L120.951 132.485L107.485 133.07L106.589 132.748Z" fill="#FFCE59"/>
<path d="M110.186 131.568L115.64 130.499L116.081 131.598L116.016 135.897H110.056L110.027 135.817C109.536 134.52 109.615 132.93 110.099 131.649L110.121 131.582L110.186 131.568ZM115.489 130.777L110.302 131.795C109.868 132.982 109.789 134.454 110.222 135.648H115.771L115.843 131.642L115.489 130.777Z" fill="#D59916"/>
<path fill-rule="evenodd" clip-rule="evenodd" d="M120.843 129.277C121.132 129.423 121.76 130.448 122.252 131.437L122.707 131.429C122.765 131.429 122.822 131.467 122.844 131.525C122.895 131.657 122.946 131.796 122.988 131.958L121.826 131.95L109.696 132.294C108.222 132.36 107.81 132.221 107.796 131.854C107.912 131.847 108.02 131.84 108.135 131.833L110.512 129.811C111.076 129.335 111.69 129.1 112.42 129.079C113.351 129.049 120.366 129.049 120.843 129.277Z" fill="#3A566E"/>
<path d="M123.377 136.256C123.24 136.44 123.038 136.563 122.749 136.563H104.349H103.749H103.539C103.229 136.563 103.027 136.454 102.896 136.256H123.377Z" fill="#D59916"/>
<path fill-rule="evenodd" clip-rule="evenodd" d="M107.896 131.847C107.975 131.847 108.055 131.84 108.134 131.833L108.546 131.48L109.008 131.782V131.811L108.806 132.147C108.286 132.147 108.04 132.052 107.896 131.847Z" fill="#3A566E"/>
<path fill-rule="evenodd" clip-rule="evenodd" d="M102.795 134.125C102.86 133.59 103.084 133.121 103.561 132.77L103.59 132.777C103.611 132.777 103.633 132.792 103.633 132.814C103.64 132.836 103.633 132.85 103.618 132.865C103.243 133.195 103.055 133.605 102.983 134.074C102.976 134.125 102.896 134.132 102.795 134.125Z" fill="#E8A200"/>
<path fill-rule="evenodd" clip-rule="evenodd" d="M108.135 131.833L110.512 129.811C110.728 129.627 110.952 129.482 111.191 129.364L111.379 129.415C111.415 129.422 111.443 129.453 111.451 129.489C111.458 129.525 111.451 129.562 111.429 129.591L109.507 131.591C109.341 131.76 109.139 131.847 108.908 131.847L108.135 131.833Z" fill="#38B1F2"/>
<path fill-rule="evenodd" clip-rule="evenodd" d="M108.279 136.563H103.887V135.575C103.887 134.345 104.869 133.348 106.083 133.348C107.297 133.348 108.279 134.345 108.279 135.575V136.563Z" fill="#87570A"/>
<path fill-rule="evenodd" clip-rule="evenodd" d="M122.75 136.563H118.364V135.575C118.364 134.345 119.347 133.348 120.561 133.348C121.768 133.348 122.75 134.345 122.75 135.575V136.563Z" fill="#87570A"/>
<path fill-rule="evenodd" clip-rule="evenodd" d="M104.818 132.579C104.912 132.704 104.659 133.041 104.269 133.333C103.871 133.627 103.481 133.758 103.388 133.642C103.301 133.517 103.546 133.18 103.944 132.887C104.341 132.594 104.731 132.455 104.818 132.579Z" fill="#38B1F2"/>
<path fill-rule="evenodd" clip-rule="evenodd" d="M103.52 133.378C103.606 133.246 103.765 133.084 103.96 132.946C104.285 132.697 104.61 132.579 104.719 132.652C104.632 132.777 104.48 132.939 104.278 133.084C103.953 133.326 103.628 133.451 103.52 133.378Z" fill="#7CC4EB"/>
<path fill-rule="evenodd" clip-rule="evenodd" d="M121.125 131.284L120.25 129.649C120.229 129.613 120.2 129.591 120.156 129.591L116.898 129.555L116.949 131.591L121.038 131.437C121.074 131.429 121.103 131.415 121.125 131.378C121.139 131.349 121.139 131.313 121.125 131.284ZM116.19 129.54L112.051 129.489C112.015 129.489 111.986 129.504 111.971 129.525L110.136 131.664C110.115 131.7 110.107 131.737 110.122 131.782C110.143 131.818 110.18 131.84 110.223 131.84L116.067 131.62L116.19 129.54Z" fill="#38B1F2"/>
<path fill-rule="evenodd" clip-rule="evenodd" d="M119.917 129.723L117.114 129.687L117.158 131.451C117.721 130.91 119.173 130.074 119.917 129.723Z" fill="#5EC0F4"/>
<path fill-rule="evenodd" clip-rule="evenodd" d="M115.726 129.672C113.769 129.921 112.201 130.573 111.016 131.642L110.561 131.656C110.525 131.656 110.496 131.635 110.474 131.605C110.46 131.569 110.467 131.533 110.489 131.503L112.071 129.658C112.093 129.636 112.114 129.621 112.143 129.629L115.726 129.672Z" fill="#5EC0F4"/>
<path fill-rule="evenodd" clip-rule="evenodd" d="M120.784 129.753L120.091 129.371L120.459 129.21C120.98 129.232 121.781 129.4 121.774 129.576C121.774 129.671 121.442 129.737 120.784 129.753Z" fill="#3A566E"/>
<path fill-rule="evenodd" clip-rule="evenodd" d="M111.797 129.592L112.079 129.284L112.469 129.079C111.364 129.064 110.973 129.306 110.981 129.482C111.147 129.525 111.313 129.518 111.797 129.592Z" fill="#3A566E"/>
<path fill-rule="evenodd" clip-rule="evenodd" d="M106.083 133.597C105.007 133.597 104.133 134.483 104.133 135.575C104.133 136.667 105.007 137.546 106.083 137.546C107.16 137.546 108.027 136.667 108.027 135.575C108.027 134.483 107.16 133.597 106.083 133.597Z" fill="#24435E"/>
<path fill-rule="evenodd" clip-rule="evenodd" d="M106.084 134.03C105.239 134.03 104.56 134.719 104.56 135.576C104.56 136.425 105.239 137.121 106.084 137.121C106.922 137.121 107.608 136.425 107.608 135.576C107.608 134.719 106.922 134.03 106.084 134.03Z" fill="#9DB3C7"/>
<path fill-rule="evenodd" clip-rule="evenodd" d="M106.083 134.234C105.353 134.234 104.761 134.836 104.761 135.575C104.761 136.315 105.353 136.916 106.083 136.916C106.812 136.916 107.398 136.315 107.398 135.575C107.398 134.836 106.812 134.234 106.083 134.234Z" fill="#87570A"/>
<path fill-rule="evenodd" clip-rule="evenodd" d="M106.084 134.71C105.614 134.71 105.231 135.099 105.231 135.575C105.231 136.051 105.614 136.44 106.084 136.44C106.554 136.44 106.936 136.051 106.936 135.575C106.936 135.099 106.554 134.71 106.084 134.71Z" fill="#778DA1"/>
<path fill-rule="evenodd" clip-rule="evenodd" d="M105.903 134.249L105.86 134.938C105.86 135.01 105.824 135.07 105.766 135.114C105.709 135.157 105.643 135.172 105.578 135.15L104.899 134.974C104.849 135.084 104.813 135.194 104.791 135.319L105.441 135.575C105.506 135.604 105.55 135.648 105.578 135.721C105.6 135.788 105.586 135.853 105.55 135.919L105.159 136.534C105.246 136.614 105.34 136.689 105.448 136.747L105.904 136.175C105.947 136.124 106.012 136.095 106.084 136.095C106.156 136.095 106.214 136.124 106.258 136.175L106.72 136.747C106.821 136.689 106.922 136.614 107.002 136.534L106.619 135.919C106.576 135.853 106.568 135.788 106.59 135.721C106.612 135.648 106.662 135.604 106.727 135.575L107.377 135.319C107.356 135.194 107.312 135.084 107.262 134.974L106.59 135.15C106.518 135.172 106.453 135.157 106.395 135.114C106.337 135.07 106.308 135.01 106.301 134.938L106.265 134.249C106.2 134.242 106.142 134.234 106.084 134.234C106.019 134.234 105.961 134.242 105.903 134.249Z" fill="#9DB3C7"/>
<path fill-rule="evenodd" clip-rule="evenodd" d="M105.902 134.249L105.895 134.432C105.952 134.425 106.017 134.418 106.082 134.418C106.147 134.418 106.212 134.425 106.27 134.432L106.263 134.249H106.256C106.256 134.249 106.248 134.249 106.241 134.242C106.234 134.242 106.227 134.242 106.227 134.242C106.22 134.242 106.212 134.242 106.205 134.242C106.205 134.242 106.198 134.242 106.191 134.242C106.183 134.242 106.183 134.242 106.176 134.242C106.169 134.242 106.162 134.234 106.154 134.234H106.147C106.133 134.234 106.126 134.234 106.118 134.234H106.111C106.104 134.234 106.089 134.234 106.082 134.234C106.068 134.234 106.061 134.234 106.046 134.234C106.039 134.234 106.024 134.234 106.017 134.234H106.01C106.003 134.234 105.996 134.242 105.981 134.242H105.974C105.967 134.242 105.959 134.242 105.952 134.242C105.945 134.242 105.945 134.242 105.938 134.242C105.931 134.242 105.931 134.242 105.923 134.242C105.916 134.249 105.909 134.249 105.902 134.249ZM105.078 135.018L104.897 134.974V134.981C104.89 134.989 104.89 134.996 104.89 135.003C104.883 135.003 104.883 135.01 104.883 135.01C104.876 135.018 104.876 135.025 104.876 135.032L104.869 135.04C104.869 135.047 104.861 135.054 104.861 135.063L104.854 135.07C104.854 135.077 104.854 135.084 104.847 135.092V135.099C104.84 135.106 104.84 135.121 104.84 135.128H104.832C104.832 135.143 104.825 135.15 104.825 135.157V135.165C104.825 135.172 104.818 135.179 104.818 135.194C104.811 135.201 104.811 135.208 104.811 135.223H104.804C104.804 135.245 104.796 135.267 104.789 135.288C104.789 135.296 104.789 135.304 104.789 135.319L104.955 135.384C104.977 135.252 105.02 135.135 105.078 135.018ZM105.259 136.373L105.158 136.534C105.165 136.542 105.172 136.542 105.179 136.549L105.186 136.556C105.194 136.563 105.194 136.571 105.201 136.571L105.208 136.578C105.215 136.585 105.223 136.585 105.23 136.593V136.6C105.237 136.6 105.244 136.607 105.252 136.614H105.259C105.266 136.622 105.266 136.629 105.273 136.636H105.28C105.288 136.644 105.295 136.651 105.302 136.651L105.309 136.658C105.317 136.658 105.317 136.665 105.324 136.673H105.331C105.338 136.681 105.346 136.689 105.353 136.689L105.36 136.696C105.367 136.696 105.374 136.703 105.382 136.71H105.389C105.396 136.718 105.396 136.718 105.403 136.725C105.411 136.725 105.411 136.725 105.418 136.732C105.418 136.732 105.425 136.74 105.432 136.74C105.439 136.74 105.439 136.747 105.447 136.747L105.562 136.6C105.454 136.549 105.36 136.476 105.273 136.387C105.273 136.387 105.266 136.38 105.259 136.373ZM106.733 136.74C106.733 136.74 106.74 136.732 106.747 136.732C106.747 136.725 106.754 136.725 106.754 136.725C106.761 136.718 106.769 136.718 106.776 136.71H106.783C106.79 136.703 106.798 136.696 106.805 136.696C106.805 136.696 106.805 136.689 106.812 136.689C106.812 136.689 106.819 136.681 106.826 136.673C106.834 136.673 106.834 136.673 106.834 136.673C106.841 136.665 106.848 136.658 106.855 136.658C106.855 136.658 106.855 136.651 106.863 136.651C106.87 136.651 106.877 136.644 106.877 136.636H106.884C106.891 136.629 106.899 136.622 106.906 136.614H106.913C106.928 136.6 106.942 136.585 106.957 136.578V136.571C106.971 136.563 106.985 136.549 107 136.534L106.899 136.373C106.899 136.38 106.891 136.387 106.884 136.387C106.805 136.476 106.704 136.549 106.603 136.6L106.733 136.74ZM107.202 135.384L107.375 135.319C107.375 135.312 107.375 135.304 107.368 135.288C107.368 135.288 107.368 135.288 107.368 135.281C107.368 135.274 107.368 135.267 107.361 135.259V135.252C107.361 135.245 107.361 135.237 107.354 135.23C107.354 135.223 107.354 135.223 107.354 135.216C107.354 135.208 107.347 135.201 107.347 135.194V135.186C107.339 135.179 107.339 135.172 107.339 135.165L107.332 135.157C107.332 135.15 107.332 135.143 107.325 135.135V135.128C107.325 135.121 107.318 135.114 107.318 135.106L107.31 135.092C107.31 135.084 107.31 135.077 107.303 135.07V135.063C107.296 135.054 107.296 135.047 107.289 135.04V135.032C107.289 135.025 107.281 135.018 107.281 135.01C107.274 135.01 107.274 135.003 107.274 135.003C107.274 134.996 107.267 134.989 107.267 134.981L107.26 134.974L107.079 135.018C107.144 135.135 107.18 135.252 107.202 135.384Z" fill="#8FA5B9"/>
<path fill-rule="evenodd" clip-rule="evenodd" d="M106.083 135.159C106.126 135.159 106.169 135.195 106.169 135.239C106.169 135.29 106.126 135.326 106.083 135.326C106.032 135.326 105.996 135.29 105.996 135.239C105.996 135.195 106.032 135.159 106.083 135.159Z" fill="#778DA1"/>
<path fill-rule="evenodd" clip-rule="evenodd" d="M105.708 135.428C105.722 135.384 105.773 135.362 105.816 135.377C105.859 135.392 105.881 135.435 105.866 135.488C105.852 135.531 105.809 135.553 105.765 135.539C105.715 135.524 105.693 135.473 105.708 135.428Z" fill="#778DA1"/>
<path fill-rule="evenodd" clip-rule="evenodd" d="M105.852 135.875C105.815 135.846 105.801 135.795 105.83 135.757C105.859 135.721 105.909 135.706 105.953 135.735C105.989 135.766 105.996 135.817 105.967 135.86C105.938 135.897 105.888 135.904 105.852 135.875Z" fill="#778DA1"/>
<path fill-rule="evenodd" clip-rule="evenodd" d="M106.314 135.875C106.278 135.904 106.22 135.897 106.191 135.86C106.169 135.817 106.176 135.766 106.213 135.735C106.249 135.706 106.306 135.721 106.328 135.757C106.357 135.795 106.35 135.846 106.314 135.875Z" fill="#778DA1"/>
<path fill-rule="evenodd" clip-rule="evenodd" d="M106.458 135.428C106.473 135.473 106.444 135.524 106.4 135.539C106.357 135.553 106.306 135.531 106.292 135.488C106.277 135.435 106.306 135.392 106.35 135.377C106.393 135.362 106.444 135.384 106.458 135.428Z" fill="#778DA1"/>
<path fill-rule="evenodd" clip-rule="evenodd" d="M121.269 133.737C120.272 133.341 119.137 133.84 118.747 134.85C118.35 135.869 118.848 137.01 119.845 137.413C120.842 137.809 121.977 137.311 122.366 136.293C122.764 135.282 122.273 134.14 121.269 133.737Z" fill="#24435E"/>
<path fill-rule="evenodd" clip-rule="evenodd" d="M121.118 134.14C120.33 133.825 119.449 134.213 119.138 135.012C118.835 135.802 119.218 136.703 119.998 137.01C120.785 137.326 121.667 136.93 121.977 136.14C122.287 135.348 121.898 134.447 121.118 134.14Z" fill="#9DB3C7"/>
<path fill-rule="evenodd" clip-rule="evenodd" d="M121.038 134.33C120.366 134.06 119.593 134.396 119.333 135.084C119.065 135.773 119.398 136.55 120.077 136.821C120.756 137.092 121.521 136.755 121.789 136.067C122.049 135.378 121.716 134.601 121.038 134.33Z" fill="#87570A"/>
<path fill-rule="evenodd" clip-rule="evenodd" d="M120.872 134.769C120.432 134.594 119.94 134.814 119.767 135.261C119.594 135.699 119.81 136.205 120.244 136.38C120.684 136.549 121.176 136.336 121.349 135.89C121.523 135.443 121.306 134.945 120.872 134.769Z" fill="#778DA1"/>
<path fill-rule="evenodd" clip-rule="evenodd" d="M120.872 134.271L120.583 134.901C120.554 134.967 120.503 135.01 120.431 135.033C120.366 135.048 120.294 135.033 120.236 134.996L119.68 134.579C119.586 134.659 119.513 134.747 119.448 134.85L119.961 135.333C120.012 135.384 120.034 135.45 120.034 135.524C120.026 135.597 119.997 135.655 119.94 135.699L119.354 136.124C119.405 136.234 119.463 136.336 119.542 136.425L120.171 136.073C120.236 136.036 120.301 136.029 120.373 136.058C120.438 136.087 120.482 136.131 120.503 136.205L120.727 136.901C120.843 136.886 120.958 136.856 121.067 136.805L120.929 136.087C120.915 136.022 120.929 135.956 120.98 135.897C121.023 135.846 121.081 135.817 121.153 135.817H121.854C121.876 135.692 121.883 135.575 121.876 135.45L121.182 135.37C121.11 135.363 121.052 135.326 121.016 135.261C120.98 135.201 120.966 135.135 120.994 135.063L121.204 134.403C121.153 134.374 121.096 134.352 121.038 134.329C120.987 134.307 120.929 134.285 120.872 134.271Z" fill="#9DB3C7"/>
<path fill-rule="evenodd" clip-rule="evenodd" d="M120.872 134.271L120.792 134.447C120.857 134.454 120.915 134.476 120.973 134.498C121.038 134.52 121.088 134.549 121.146 134.587L121.204 134.403C121.197 134.403 121.189 134.403 121.182 134.396C121.182 134.396 121.175 134.389 121.168 134.389L121.161 134.381C121.153 134.381 121.146 134.374 121.139 134.374L121.132 134.367C121.124 134.367 121.117 134.36 121.103 134.36V134.352C121.096 134.352 121.081 134.345 121.074 134.345C121.059 134.338 121.052 134.329 121.038 134.329C121.031 134.322 121.023 134.322 121.009 134.315C121.002 134.315 120.987 134.307 120.98 134.307H120.973C120.966 134.3 120.958 134.3 120.951 134.293C120.944 134.293 120.944 134.293 120.937 134.293C120.937 134.293 120.929 134.285 120.922 134.285C120.915 134.285 120.908 134.285 120.908 134.285C120.9 134.278 120.893 134.278 120.893 134.278C120.886 134.278 120.879 134.278 120.872 134.271ZM119.824 134.689L119.68 134.579C119.672 134.579 119.672 134.587 119.665 134.587C119.665 134.594 119.658 134.594 119.651 134.601C119.651 134.601 119.651 134.608 119.644 134.608C119.636 134.616 119.636 134.616 119.629 134.623L119.622 134.63C119.615 134.638 119.615 134.638 119.607 134.645L119.6 134.652C119.593 134.659 119.586 134.667 119.586 134.674H119.578C119.571 134.681 119.564 134.689 119.564 134.696L119.557 134.703C119.55 134.71 119.542 134.718 119.542 134.725H119.535C119.528 134.732 119.528 134.74 119.521 134.747C119.513 134.754 119.506 134.761 119.499 134.769V134.776C119.484 134.791 119.47 134.814 119.463 134.828C119.456 134.836 119.448 134.843 119.448 134.85L119.578 134.981C119.651 134.865 119.73 134.769 119.824 134.689ZM119.506 136.015L119.354 136.124C119.362 136.131 119.362 136.138 119.369 136.146V136.153C119.376 136.16 119.376 136.168 119.383 136.175V136.182C119.383 136.189 119.391 136.198 119.398 136.205V136.213C119.405 136.22 119.405 136.227 119.412 136.234V136.242C119.42 136.249 119.42 136.256 119.427 136.264V136.271C119.434 136.278 119.441 136.285 119.441 136.293H119.448C119.448 136.3 119.456 136.307 119.456 136.315L119.463 136.322C119.47 136.329 119.47 136.336 119.477 136.344L119.485 136.351C119.485 136.358 119.492 136.358 119.499 136.366V136.373C119.506 136.38 119.514 136.387 119.514 136.395L119.521 136.402C119.528 136.409 119.528 136.409 119.535 136.417C119.535 136.425 119.542 136.425 119.542 136.425L119.701 136.336C119.622 136.249 119.564 136.146 119.514 136.036C119.513 136.029 119.506 136.022 119.506 136.015ZM120.742 136.901C120.749 136.901 120.756 136.901 120.763 136.894H120.77C120.778 136.894 120.785 136.894 120.792 136.894L120.799 136.886C120.807 136.886 120.814 136.886 120.821 136.886C120.828 136.886 120.828 136.886 120.836 136.886C120.843 136.879 120.85 136.879 120.857 136.879H120.864C120.872 136.872 120.879 136.872 120.886 136.872C120.886 136.872 120.893 136.872 120.893 136.865C120.901 136.865 120.908 136.865 120.915 136.865L120.922 136.857C120.93 136.857 120.944 136.857 120.951 136.849C120.973 136.842 120.994 136.834 121.009 136.827C121.031 136.82 121.052 136.812 121.067 136.805L121.031 136.622C121.023 136.63 121.016 136.63 121.016 136.63C120.908 136.681 120.792 136.71 120.669 136.725L120.742 136.901ZM121.673 135.817H121.854C121.854 135.809 121.861 135.802 121.861 135.795C121.861 135.788 121.861 135.788 121.861 135.78C121.861 135.773 121.861 135.766 121.869 135.758V135.751C121.869 135.744 121.869 135.737 121.869 135.722C121.869 135.722 121.869 135.722 121.869 135.715C121.869 135.706 121.869 135.699 121.876 135.692V135.684C121.876 135.677 121.876 135.67 121.876 135.655C121.876 135.655 121.876 135.655 121.876 135.648C121.876 135.641 121.876 135.633 121.876 135.626V135.619C121.876 135.611 121.876 135.604 121.876 135.597V135.582C121.876 135.575 121.876 135.568 121.876 135.56V135.553C121.876 135.546 121.876 135.539 121.876 135.531C121.876 135.524 121.876 135.524 121.876 135.517C121.876 135.509 121.876 135.502 121.876 135.495V135.486C121.876 135.479 121.876 135.472 121.876 135.465C121.876 135.457 121.876 135.457 121.876 135.45L121.688 135.428C121.703 135.553 121.703 135.684 121.673 135.817Z" fill="#8FA5B9"/>
<path fill-rule="evenodd" clip-rule="evenodd" d="M120.713 135.179C120.756 135.201 120.778 135.252 120.756 135.297C120.742 135.341 120.691 135.363 120.648 135.348C120.604 135.326 120.583 135.274 120.597 135.23C120.619 135.186 120.662 135.165 120.713 135.179Z" fill="#778DA1"/>
<path fill-rule="evenodd" clip-rule="evenodd" d="M120.266 135.304C120.295 135.268 120.345 135.261 120.382 135.29C120.418 135.319 120.425 135.378 120.396 135.415C120.36 135.451 120.309 135.451 120.273 135.422C120.237 135.393 120.23 135.341 120.266 135.304Z" fill="#778DA1"/>
<path fill-rule="evenodd" clip-rule="evenodd" d="M120.236 135.773C120.207 135.729 120.222 135.678 120.258 135.649C120.301 135.627 120.352 135.642 120.373 135.678C120.402 135.715 120.388 135.773 120.352 135.795C120.308 135.824 120.258 135.809 120.236 135.773Z" fill="#778DA1"/>
<path fill-rule="evenodd" clip-rule="evenodd" d="M120.662 135.942C120.618 135.956 120.575 135.927 120.56 135.883C120.546 135.832 120.575 135.788 120.618 135.773C120.669 135.766 120.712 135.796 120.726 135.84C120.734 135.883 120.705 135.927 120.662 135.942Z" fill="#778DA1"/>
<path fill-rule="evenodd" clip-rule="evenodd" d="M120.958 135.584C120.951 135.627 120.915 135.664 120.871 135.664C120.821 135.656 120.785 135.62 120.792 135.568C120.792 135.524 120.835 135.488 120.879 135.488C120.922 135.495 120.958 135.531 120.958 135.584Z" fill="#778DA1"/>
<path fill-rule="evenodd" clip-rule="evenodd" d="M104.133 134.124C104.537 133.348 105.231 132.945 106.055 132.945C106.871 132.945 107.622 133.348 108.034 134.124C107.579 133.56 106.871 133.194 106.083 133.194C105.289 133.194 104.588 133.56 104.133 134.124Z" fill="#F7C34A"/>
<path fill-rule="evenodd" clip-rule="evenodd" d="M110.114 131.613C109.883 131.678 109.58 131.796 109.414 131.956C109.255 132.118 109.233 132.338 109.363 132.499C109.493 132.659 109.768 132.777 109.992 132.821C110.223 132.865 110.403 132.836 110.526 132.645C110.642 132.448 110.692 132.089 110.707 131.869C110.721 131.649 110.7 131.569 110.606 131.547C110.512 131.517 110.353 131.547 110.114 131.613Z" fill="#E8A200"/>
<path fill-rule="evenodd" clip-rule="evenodd" d="M110.064 131.758C109.855 131.818 109.587 131.92 109.443 132.067C109.334 132.176 109.342 132.287 109.436 132.411C109.551 132.55 109.789 132.652 109.999 132.689C110.519 132.777 110.555 132.418 110.584 131.986C110.591 131.788 110.57 131.722 110.49 131.7C110.411 131.678 110.266 131.7 110.064 131.758Z" fill="#FFCE59"/>
<path fill-rule="evenodd" clip-rule="evenodd" d="M114.492 132.616H115.236C115.316 132.616 115.381 132.659 115.403 132.732L115.453 132.865C115.46 132.887 115.46 132.901 115.446 132.923C115.431 132.938 115.417 132.945 115.395 132.945H114.333C114.312 132.945 114.297 132.938 114.283 132.923C114.275 132.901 114.268 132.887 114.275 132.865L114.326 132.732C114.348 132.659 114.42 132.616 114.492 132.616Z" fill="#3A566E"/>
<path fill-rule="evenodd" clip-rule="evenodd" d="M123.24 133.085L122.394 133.114C122.286 133.114 122.193 133.041 122.178 132.93L122.055 132.235C122.047 132.169 122.062 132.111 122.105 132.06C122.142 132.007 122.2 131.978 122.264 131.978L123.038 131.949C123.095 131.949 123.138 131.986 123.153 132.044C123.226 132.323 123.297 132.623 123.355 132.938C123.363 132.975 123.355 133.004 123.334 133.034C123.312 133.063 123.283 133.077 123.24 133.085Z" fill="#E06624"/>
<path d="M133.232 135.429V137.502H133.825V134.719H133.398L132.546 135.129L132.785 135.649L133.232 135.429ZM135.024 135.429V137.502H135.624V134.719H135.19L134.345 135.129L134.577 135.649L135.024 135.429ZM147.984 137.319C147.984 137.07 147.84 136.886 147.623 136.886C147.435 136.886 147.298 137.026 147.298 137.209C147.298 137.37 147.406 137.517 147.559 137.546C147.559 137.62 147.486 137.722 147.335 137.861L147.508 138.044C147.826 137.824 147.984 137.589 147.984 137.319ZM149.884 135.429V137.502H150.484V134.719H150.058L149.205 135.129L149.437 135.649L149.884 135.429ZM152.023 137.553C152.326 137.553 152.579 137.458 152.782 137.275C152.984 137.092 153.092 136.865 153.092 136.594C153.092 136.323 152.984 136.096 152.789 135.913C152.587 135.729 152.341 135.634 152.045 135.634H151.778L151.806 135.268H152.839V134.719H151.322L151.171 136.191H151.951C152.247 136.191 152.464 136.367 152.464 136.594C152.464 136.806 152.276 136.975 152.023 136.975C151.806 136.975 151.64 136.843 151.561 136.63L150.961 136.799C151.034 137.026 151.163 137.209 151.351 137.348C151.546 137.487 151.771 137.553 152.023 137.553ZM153.713 138.198L155.498 134.323H154.999L153.215 138.198H153.713ZM155.636 136.543C155.636 136.835 155.736 137.07 155.939 137.268C156.149 137.458 156.401 137.553 156.704 137.553C157.016 137.553 157.275 137.458 157.477 137.268C157.687 137.07 157.788 136.835 157.788 136.543V135.671C157.788 135.386 157.687 135.144 157.477 134.953C157.275 134.763 157.016 134.668 156.704 134.668C156.401 134.668 156.149 134.763 155.939 134.953C155.736 135.144 155.636 135.386 155.636 135.671V136.543ZM156.227 135.664C156.227 135.422 156.437 135.246 156.704 135.246C156.979 135.246 157.189 135.422 157.189 135.664V136.557C157.189 136.792 156.979 136.975 156.704 136.975C156.437 136.975 156.227 136.792 156.227 136.557V135.664ZM158.041 136.982C158.207 137.333 158.598 137.553 159.052 137.553C159.363 137.553 159.623 137.458 159.833 137.268C160.042 137.077 160.151 136.843 160.151 136.565V135.605C160.151 135.335 160.049 135.115 159.854 134.931C159.653 134.755 159.406 134.668 159.111 134.668C158.814 134.668 158.569 134.755 158.366 134.931C158.171 135.115 158.07 135.335 158.07 135.605C158.07 135.869 158.171 136.096 158.359 136.279C158.554 136.461 158.793 136.55 159.081 136.55C159.269 136.55 159.428 136.514 159.551 136.425V136.572C159.551 136.799 159.334 136.975 159.038 136.975C158.821 136.975 158.669 136.886 158.583 136.726L158.041 136.982ZM158.691 135.598C158.691 135.393 158.872 135.246 159.111 135.246C159.348 135.246 159.529 135.4 159.529 135.605C159.529 135.818 159.348 135.971 159.111 135.971C158.872 135.971 158.691 135.811 158.691 135.598ZM136.433 136.879C136.245 136.879 136.101 137.019 136.101 137.217C136.101 137.407 136.245 137.553 136.433 137.553C136.628 137.553 136.772 137.407 136.772 137.217C136.772 137.019 136.628 136.879 136.433 136.879ZM136.101 135.715C136.101 135.913 136.245 136.059 136.433 136.059C136.628 136.059 136.772 135.913 136.772 135.715C136.772 135.524 136.628 135.378 136.433 135.378C136.245 135.378 136.101 135.524 136.101 135.715ZM138.044 137.553C138.347 137.553 138.608 137.458 138.803 137.275C139.004 137.092 139.113 136.865 139.113 136.594C139.113 136.323 139.004 136.096 138.81 135.913C138.608 135.729 138.362 135.634 138.066 135.634H137.798L137.827 135.268H138.86V134.719H137.343L137.192 136.191H137.971C138.268 136.191 138.484 136.367 138.484 136.594C138.484 136.806 138.296 136.975 138.044 136.975C137.827 136.975 137.661 136.843 137.581 136.63L136.982 136.799C137.054 137.026 137.185 137.209 137.372 137.348C137.568 137.487 137.791 137.553 138.044 137.553ZM141.433 135.231C141.258 134.88 140.891 134.668 140.449 134.668C140.146 134.668 139.893 134.763 139.684 134.953C139.482 135.137 139.38 135.378 139.38 135.656V136.623C139.38 136.886 139.475 137.106 139.677 137.29C139.878 137.466 140.125 137.553 140.428 137.553C140.725 137.553 140.977 137.466 141.172 137.29C141.375 137.113 141.475 136.894 141.475 136.63C141.475 136.367 141.382 136.147 141.179 135.971C140.984 135.787 140.745 135.7 140.457 135.7C140.269 135.7 140.11 135.736 139.973 135.825V135.649C139.973 135.415 140.175 135.246 140.449 135.246C140.652 135.246 140.796 135.326 140.884 135.495L141.433 135.231ZM139.995 136.623C139.995 136.432 140.183 136.279 140.428 136.279C140.674 136.279 140.854 136.432 140.854 136.63C140.854 136.828 140.666 136.975 140.428 136.975C140.183 136.975 139.995 136.828 139.995 136.623ZM142.024 136.879C141.836 136.879 141.699 137.019 141.699 137.217C141.699 137.407 141.836 137.553 142.024 137.553C142.22 137.553 142.364 137.407 142.364 137.217C142.364 137.019 142.22 136.879 142.024 136.879ZM141.699 135.715C141.699 135.913 141.836 136.059 142.024 136.059C142.22 136.059 142.364 135.913 142.364 135.715C142.364 135.524 142.22 135.378 142.024 135.378C141.836 135.378 141.699 135.524 141.699 135.715ZM143.636 137.553C143.939 137.553 144.199 137.458 144.395 137.275C144.603 137.092 144.705 136.865 144.705 136.594C144.705 136.323 144.603 136.096 144.402 135.913C144.199 135.729 143.953 135.634 143.657 135.634H143.39L143.426 135.268H144.452V134.719H142.935L142.783 136.191H143.563C143.86 136.191 144.076 136.367 144.076 136.594C144.076 136.806 143.889 136.975 143.636 136.975C143.419 136.975 143.253 136.843 143.174 136.63L142.574 136.799C142.646 137.026 142.776 137.209 142.971 137.348C143.159 137.487 143.382 137.553 143.636 137.553ZM145.997 137.553C146.302 137.553 146.554 137.458 146.756 137.275C146.959 137.092 147.059 136.865 147.059 136.594C147.059 136.323 146.959 136.096 146.756 135.913C146.561 135.729 146.309 135.634 146.012 135.634H145.745L145.782 135.268H146.815V134.719H145.291L145.145 136.191H145.926C146.214 136.191 146.439 136.367 146.439 136.594C146.439 136.806 146.251 136.975 145.997 136.975C145.782 136.975 145.608 136.843 145.528 136.63L144.929 136.799C145.008 137.026 145.131 137.209 145.326 137.348C145.521 137.487 145.745 137.553 145.997 137.553Z" fill="#6F6F6F"/>
<path fill-rule="evenodd" clip-rule="evenodd" d="M130.012 134.659C130.777 134.659 131.391 135.29 131.391 136.059C131.391 136.835 130.777 137.458 130.012 137.458C129.253 137.458 128.632 136.835 128.632 136.059C128.632 135.29 129.253 134.659 130.012 134.659Z" fill="#59D43E"/>
<path d="M129.619 128.419L130.588 131.019L131.555 128.419H132.582V132H131.794V131.019L131.874 129.327L130.854 132H130.32L129.301 129.335L129.381 131.019V132H128.601V128.419H129.619ZM134.258 130.997L134.778 129.342H135.579L134.453 132.411L134.387 132.55C134.221 132.901 133.947 133.077 133.557 133.077C133.449 133.077 133.34 133.063 133.225 133.026V132.492H133.34C133.484 132.492 133.593 132.469 133.657 132.425C133.73 132.389 133.788 132.323 133.824 132.227L133.911 132.007L132.929 129.342H133.737L134.258 130.997ZM138.369 131.473C138.506 131.473 138.621 131.444 138.708 131.371C138.794 131.297 138.838 131.202 138.838 131.077H139.546C139.539 131.261 139.488 131.429 139.387 131.576C139.285 131.729 139.148 131.847 138.968 131.927C138.794 132.007 138.592 132.052 138.382 132.052C137.978 132.052 137.661 131.927 137.429 131.686C137.198 131.444 137.082 131.115 137.082 130.683V130.639C137.082 130.229 137.198 129.898 137.429 129.657C137.661 129.408 137.971 129.291 138.376 129.291C138.73 129.291 139.011 129.386 139.221 129.569C139.431 129.76 139.539 130.016 139.546 130.331H138.838C138.838 130.192 138.794 130.082 138.708 129.994C138.621 129.906 138.506 129.862 138.362 129.862C138.188 129.862 138.057 129.92 137.964 130.045C137.877 130.162 137.834 130.36 137.834 130.63V130.705C137.834 130.983 137.877 131.18 137.964 131.297C138.057 131.415 138.188 131.473 138.369 131.473ZM141.597 132C141.568 131.935 141.539 131.862 141.526 131.766C141.345 131.956 141.106 132.052 140.818 132.052C140.543 132.052 140.311 131.978 140.132 131.825C139.951 131.671 139.864 131.48 139.864 131.253C139.864 130.968 139.972 130.756 140.196 130.601C140.413 130.448 140.731 130.374 141.15 130.374H141.497V130.221C141.497 130.096 141.46 130.001 141.395 129.927C141.331 129.855 141.222 129.818 141.077 129.818C140.955 129.818 140.853 129.847 140.781 129.906C140.709 129.958 140.672 130.038 140.672 130.133H139.922C139.922 129.98 139.972 129.84 140.073 129.709C140.174 129.576 140.318 129.473 140.499 129.4C140.68 129.328 140.889 129.291 141.121 129.291C141.468 129.291 141.742 129.371 141.944 129.533C142.147 129.7 142.247 129.936 142.247 130.229V131.386C142.247 131.642 142.284 131.833 142.356 131.956V132H141.597ZM140.984 131.51C141.092 131.51 141.192 131.48 141.287 131.437C141.38 131.393 141.446 131.326 141.497 131.246V130.792H141.214C140.838 130.792 140.637 130.917 140.615 131.159V131.202C140.615 131.29 140.644 131.364 140.709 131.422C140.774 131.48 140.868 131.51 140.984 131.51ZM144.4 130.001C144.3 129.994 144.213 129.987 144.134 129.987C143.844 129.987 143.663 130.074 143.577 130.258V132H142.826V129.342H143.534L143.555 129.657C143.7 129.408 143.909 129.291 144.176 129.291C144.263 129.291 144.343 129.298 144.415 129.32L144.4 130.001Z" fill="#6F6F6F"/>
<path fill-rule="evenodd" clip-rule="evenodd" d="M205.484 158.903C203.353 166.953 201.229 174.996 198.968 181.594C196.714 188.194 194.338 193.349 190.19 196.726C186.051 200.103 180.155 201.693 174.253 202.271C168.359 202.85 162.456 202.403 156.922 201.143C151.388 199.876 146.216 197.782 144.763 193.709C143.311 189.636 145.573 183.587 149.365 177.852C153.158 172.109 158.49 166.689 163.619 162.939C168.762 159.196 173.697 157.124 177.657 155.607C181.608 154.099 184.577 153.146 188.406 153C192.235 152.853 196.924 153.527 199.907 154.648C202.898 155.769 204.191 157.336 205.484 158.903Z" fill="#FFB57F"/>
<path fill-rule="evenodd" clip-rule="evenodd" d="M198.174 128.052C199.886 130.184 202.263 133.195 203.99 136.937C205.716 140.687 206.793 145.17 206.612 150.597C206.424 156.025 204.972 162.397 203.333 165.657C201.692 168.923 199.879 169.084 197.285 168.872C194.692 168.659 191.318 168.08 188.356 166.792C180.908 163.547 179.232 161.233 170.209 158.999C174.601 155.966 178.994 152.94 181.168 150.312C183.35 147.675 183.306 145.434 182.295 142.687C181.695 141.076 180.77 139.296 179.695 137.435C177.151 134.015 175.273 129.686 174.355 125.518C173.394 121.124 173.51 116.905 174.969 113.455C176.429 110.005 179.232 107.325 181.428 106.936C183.617 106.548 185.192 108.46 186.182 110.276C187.164 112.093 187.562 113.814 188.805 115.982C190.053 118.15 192.156 120.772 193.608 122.559C193.861 122.867 194.099 123.153 194.316 123.416L194.352 123.431C195.407 124.683 196.462 125.929 198.174 128.052Z" fill="#FFB57F"/>
<path fill-rule="evenodd" clip-rule="evenodd" d="M185.818 122.765C184.367 122.442 183.196 121.469 182.344 120.458C181.491 119.454 180.964 118.422 180.791 116.964C180.625 115.507 180.82 113.624 181.232 112.298C181.65 110.965 182.294 110.189 182.9 109.669C183.515 109.142 184.092 108.878 184.497 108.775C184.902 108.666 185.132 108.724 185.306 108.79C185.479 108.849 185.588 108.922 185.877 109.457C186.166 109.991 186.628 110.98 187.437 112.518C188.247 114.064 189.395 116.151 190.255 117.535C191.107 118.912 191.678 119.579 191.939 119.938C192.205 120.289 192.169 120.326 191.917 120.692C191.663 121.066 191.187 121.754 190.088 122.259C188.997 122.773 187.264 123.087 185.818 122.765Z" fill="#FFD29F"/>
<path fill-rule="evenodd" clip-rule="evenodd" d="M179.692 137.435C177.149 134.015 175.271 129.686 174.354 125.518C173.934 123.607 173.724 121.725 173.739 119.923C174.346 121.571 175.148 123.549 175.958 125.313C176.434 126.354 176.911 127.32 177.409 128.236C178.117 129.547 178.869 130.763 179.692 131.971C181.101 134.029 182.741 136.066 183.976 138.373C185.219 140.702 186.021 143.28 185.457 145.975C184.894 148.693 182.943 151.549 179.663 153.696C177.936 154.824 175.856 155.754 173.87 156.45C176.896 154.296 179.606 152.201 181.166 150.312C183.348 147.675 183.305 145.434 182.294 142.687C181.693 141.076 180.768 139.296 179.692 137.435Z" fill="#F49B59"/>
<path fill-rule="evenodd" clip-rule="evenodd" d="M83.9468 129.525C86.9378 129.013 89.7264 129.423 92.0455 130.397C94.3572 131.378 96.2067 132.917 97.9839 134.243C99.7684 135.568 101.488 136.674 102.6 137.582C103.72 138.498 104.233 139.208 104.536 139.949C104.847 140.688 104.941 141.457 104.919 142.512C104.898 143.566 104.753 144.9 104.038 146.328C103.33 147.749 102.051 149.258 100.353 150.231C98.6485 151.214 96.5318 151.661 94.3355 151.374C92.1394 151.081 89.8709 150.049 87.8553 148.789C85.8397 147.537 84.0769 146.049 82.7909 145.09C81.5051 144.138 80.6959 143.713 79.4966 143.435C78.2973 143.164 76.708 143.032 75.2704 143.252C73.8399 143.472 72.554 144.02 71.2607 144.585C71.333 143.237 71.3981 141.889 71.9471 139.942C72.5033 138 73.5292 135.451 75.6388 133.466C77.7555 131.474 80.956 130.038 83.9468 129.525Z" fill="#FFB57F"/>
<path fill-rule="evenodd" clip-rule="evenodd" d="M90.407 136.74C91.2016 135.75 92.5887 135.077 94.0625 135.223C95.5363 135.363 97.104 136.315 98.4911 137.267C99.8782 138.211 101.077 139.156 101.793 139.772C102.501 140.387 102.732 140.673 102.703 141.288C102.674 141.903 102.399 142.84 101.663 143.917C100.933 144.994 99.7481 146.217 98.9101 146.92C98.072 147.63 97.588 147.821 97.1763 147.858C96.75 147.887 96.396 147.748 95.3123 146.935C94.2287 146.115 92.4226 144.613 91.2812 143.397C90.1397 142.189 89.67 141.265 89.54 140.153C89.4028 139.032 89.6123 137.728 90.407 136.74Z" fill="#FFD29F"/>
<path fill-rule="evenodd" clip-rule="evenodd" d="M85.3121 106.629C88.5486 105.838 91.6334 106.065 94.2559 107.12C96.8856 108.167 99.0601 110.042 100.693 111.317C102.326 112.599 103.409 113.272 104.76 114.261C106.111 115.243 107.715 116.532 108.495 118.092C109.283 119.652 109.232 121.483 108.567 123.278C107.903 125.065 106.617 126.815 104.832 128.016C103.048 129.218 100.758 129.876 98.3375 129.731C95.9102 129.584 93.3528 128.632 91.0482 127.416C88.7508 126.192 86.7062 124.706 85.2253 123.761C83.7442 122.816 82.8268 122.413 81.3819 122.186C79.937 121.966 77.9719 121.93 76.4043 122.288C74.8439 122.64 73.565 123.387 72.4091 124.134C72.3947 122.648 72.4525 121.168 72.9077 118.986C73.3701 116.81 74.3526 113.924 76.5199 111.588C78.6801 109.237 82.0755 107.427 85.3121 106.629Z" fill="#FFB57F"/>
<path fill-rule="evenodd" clip-rule="evenodd" d="M92.8974 114.379C93.6921 113.236 95.1515 112.401 96.7697 112.438C98.3952 112.482 100.172 113.397 101.755 114.327C103.337 115.25 104.717 116.188 105.54 116.81C106.364 117.426 106.631 117.726 106.653 118.4C106.667 119.066 106.436 120.114 105.721 121.344C104.998 122.575 103.792 123.996 102.932 124.831C102.072 125.665 101.567 125.921 101.112 125.988C100.656 126.054 100.252 125.929 99.0093 125.124C97.7667 124.31 95.686 122.809 94.3423 121.578C93.0131 120.341 92.4279 119.374 92.1967 118.158C91.9727 116.957 92.1028 115.514 92.8974 114.379Z" fill="#FFD29F"/>
<path d="M139.617 76.0574C141.518 76.0574 143.23 76.8411 144.473 78.1009C145.715 79.3533 146.48 81.0966 146.48 83.0156C146.48 84.9345 145.715 86.6778 144.473 87.9376C143.23 89.1901 141.518 89.9738 139.617 89.9738C137.725 89.9738 136.013 89.19 134.77 87.9376C133.527 86.6778 132.761 84.9345 132.761 83.0156C132.761 81.0966 133.527 79.3533 134.77 78.1009C136.013 76.8411 137.725 76.0574 139.617 76.0574ZM139.617 71.1353C142.854 71.1353 145.787 72.461 147.904 74.6145C150.028 76.7679 151.342 79.7342 151.342 83.0156C151.342 86.297 150.028 89.2706 147.904 91.4167C145.787 93.5701 142.854 94.8958 139.617 94.8958C136.381 94.8958 133.455 93.5701 131.332 91.4167C129.215 89.2706 127.899 86.297 127.899 83.0156C127.899 79.7342 129.215 76.7679 131.332 74.6145C133.455 72.461 136.381 71.1353 139.617 71.1353ZM146.293 76.2551C144.581 74.5265 142.225 73.4498 139.617 73.4498C137.017 73.4498 134.655 74.5193 132.949 76.2551C131.244 77.9837 130.19 80.3715 130.19 83.0156C130.19 85.6597 131.244 88.0475 132.949 89.776C134.655 91.512 137.017 92.5813 139.617 92.5813C142.225 92.5813 144.581 91.512 146.293 89.776C147.998 88.0475 149.053 85.6597 149.053 83.0156C149.053 80.3715 147.998 77.9837 146.293 76.2551ZM142.854 79.7342C142.024 78.8992 140.882 78.3792 139.617 78.3792C138.354 78.3792 137.212 78.8992 136.389 79.7342C135.557 80.5765 135.044 81.7338 135.044 83.0156C135.044 84.2973 135.557 85.4546 136.389 86.297C137.212 87.1319 138.354 87.652 139.617 87.652C140.882 87.652 142.024 87.1319 142.854 86.297C143.685 85.4546 144.19 84.2973 144.19 83.0156C144.19 81.7338 143.685 80.5765 142.854 79.7342Z" fill="#FFA38A"/>
<path fill-rule="evenodd" clip-rule="evenodd" d="M139.62 80.6634C140.898 80.6634 141.938 81.7181 141.938 83.0145C141.938 84.311 140.898 85.3657 139.62 85.3657C138.341 85.3657 137.308 84.311 137.308 83.0145C137.308 81.7181 138.341 80.6634 139.62 80.6634Z" fill="#FFA38A"/>
<path fill-rule="evenodd" clip-rule="evenodd" d="M139.618 83.0145C135.732 80.4291 129.843 74.3864 129.909 66.8349C129.952 61.4368 134.287 57.0714 139.618 57.0714C144.957 57.0714 149.291 61.4368 149.335 66.8349C149.4 74.3864 143.512 80.4291 139.618 83.0145Z" fill="#FDB706"/>
<path fill-rule="evenodd" clip-rule="evenodd" d="M139.619 62.7706C141.888 62.7706 143.723 64.6309 143.723 66.9234C143.723 69.216 141.888 71.0764 139.619 71.0764C137.358 71.0764 135.522 69.216 135.522 66.9234C135.522 64.6309 137.358 62.7706 139.619 62.7706Z" fill="white"/>
<path d="M137.913 81.4187L124.577 44.8331L98.1791 53.5199L94.5957 43.5733L92.125 44.4596V42.1451L95.8889 40.79L99.4939 50.81L125.907 42.1158L139.944 80.6862L137.913 81.4187Z" fill="#FDB706"/>
<path fill-rule="evenodd" clip-rule="evenodd" d="M169.708 82.634C168.646 82.634 167.779 81.7551 167.779 80.6784V74.1449C167.779 73.0756 168.646 72.1967 169.708 72.1967C170.77 72.1967 171.637 73.0756 171.637 74.1449V80.6784C171.637 81.7551 170.77 82.634 169.708 82.634Z" fill="#24435E"/>
<path fill-rule="evenodd" clip-rule="evenodd" d="M169.71 75.5585C170.375 75.5585 170.917 75.0164 170.917 74.3353C170.917 73.6615 170.375 73.1122 169.71 73.1122C169.045 73.1122 168.503 73.6615 168.503 74.3353C168.503 75.0164 169.045 75.5585 169.71 75.5585Z" fill="#FF7768"/>
<path fill-rule="evenodd" clip-rule="evenodd" d="M169.71 78.6283C170.375 78.6283 170.917 78.0863 170.917 77.4051C170.917 76.7313 170.375 76.1893 169.71 76.1893C169.045 76.1893 168.503 76.7313 168.503 77.4051C168.503 78.0863 169.045 78.6283 169.71 78.6283Z" fill="#FFFF21"/>
<path fill-rule="evenodd" clip-rule="evenodd" d="M169.71 81.7047C170.375 81.7047 170.917 81.1552 170.917 80.4814C170.917 79.8003 170.375 79.2582 169.71 79.2582C169.045 79.2582 168.503 79.8002 168.503 80.4814C168.503 81.1552 169.045 81.7047 169.71 81.7047Z" fill="#31FF00"/>
<path fill-rule="evenodd" clip-rule="evenodd" d="M108.345 39.7428C107.283 39.7428 106.416 38.8639 106.416 37.7872V31.2539C106.416 30.1772 107.283 29.2982 108.345 29.2982C109.407 29.2982 110.274 30.1771 110.274 31.2539V37.7872C110.274 38.8639 109.407 39.7428 108.345 39.7428Z" fill="#24435E"/>
<path fill-rule="evenodd" clip-rule="evenodd" d="M108.344 32.6672C109.009 32.6672 109.543 32.1178 109.543 31.4439C109.543 30.7701 109.009 30.2208 108.344 30.2208C107.672 30.2208 107.138 30.7701 107.138 31.4439C107.138 32.1178 107.672 32.6672 108.344 32.6672Z" fill="#FF7768"/>
<path fill-rule="evenodd" clip-rule="evenodd" d="M108.344 35.7361C109.009 35.7361 109.543 35.1867 109.543 34.5129C109.543 33.839 109.009 33.2896 108.344 33.2896C107.672 33.2896 107.138 33.839 107.138 34.5129C107.138 35.1867 107.672 35.7361 108.344 35.7361Z" fill="#FFFF21"/>
<path fill-rule="evenodd" clip-rule="evenodd" d="M108.344 38.8051C109.009 38.8051 109.543 38.2557 109.543 37.5818C109.543 36.908 109.009 36.3586 108.344 36.3586C107.672 36.3586 107.138 36.908 107.138 37.5818C107.138 38.2557 107.672 38.8051 108.344 38.8051Z" fill="#31FF00"/>
<path fill-rule="evenodd" clip-rule="evenodd" d="M256.98 137.421L242.885 142.438L245.529 149.945L259.984 145.536L256.98 137.421Z" fill="#FFF2C6"/>
<path fill-rule="evenodd" clip-rule="evenodd" d="M69.2965 201.282L55.3389 206.211L57.0221 212.269L71.4421 207.361L69.2965 201.282Z" fill="#FFF2C6"/>
<path fill-rule="evenodd" clip-rule="evenodd" d="M263.388 188.296L252.667 191.965L257.364 205.288C259.928 200.521 262.218 195.584 264.226 190.494L263.388 188.296Z" fill="#FFF2C6"/>
<path fill-rule="evenodd" clip-rule="evenodd" d="M25.805 156.304L9.85352 161.878L12.5121 169.707L28.9259 164.163L25.805 156.304Z" fill="#FFF2C6"/>
<path fill-rule="evenodd" clip-rule="evenodd" d="M53.8803 98.7043C56.0621 98.7043 57.8392 96.9025 57.8392 94.6905C57.8392 92.4785 56.0621 90.6694 53.8803 90.6694C51.6986 90.6694 49.9141 92.4785 49.9141 94.6905C49.9141 96.9025 51.6986 98.7043 53.8803 98.7043Z" fill="#FFF2C6"/>
<path fill-rule="evenodd" clip-rule="evenodd" d="M212.859 236.381C215.041 236.381 216.826 234.579 216.826 232.367C216.826 230.156 215.041 228.354 212.859 228.354C210.678 228.354 208.9 230.156 208.9 232.367C208.9 234.579 210.678 236.381 212.859 236.381Z" fill="#FFF2C6"/>
</g>
</g>
<defs>
<clipPath id="clip0_327_11269">
<rect width="274" height="289" fill="white"/>
</clipPath>
</defs>
</svg>
