<svg xmlns="http://www.w3.org/2000/svg" version="1.1" xmlns:xlink="http://www.w3.org/1999/xlink" xmlns:svgjs="http://svgjs.dev/svgjs" width="1500" height="515" viewBox="0 0 1500 515"><g transform="matrix(1,0,0,1,-0.9084522071641459,-0.5591773194161078)"><svg viewBox="0 0 396 136" data-background-color="#eeedeb" preserveAspectRatio="xMidYMid meet" height="515" width="1500" xmlns="http://www.w3.org/2000/svg" xmlns:xlink="http://www.w3.org/1999/xlink"><g id="tight-bounds" transform="matrix(1,0,0,1,0.24008861730862918,0.14800693020572453)"><svg viewBox="0 0 395.52 135.70429390786066" height="135.70429390786066" width="395.52"><g><svg viewBox="0 0 395.52 135.70429390786066" height="135.70429390786066" width="395.52"><g><svg viewBox="0 0 395.52 135.70429390786066" height="135.70429390786066" width="395.52"><g id="textblocktransform"><svg viewBox="0 0 395.52 135.70429390786066" height="135.70429390786066" width="395.52" id="textblock"><g><svg viewBox="0 0 395.52 135.70429390786066" height="135.70429390786066" width="395.52"><path d="M394.594 29.106C392.735 15.02 387.435 11.104 387.435 11.104 371.165-3.405 350.86-0.278 332.619 1.807 300.414 1.892 268.339 4.991 236.208 6.653 168.767 6.906 100.749 2.737 33.643 13.02 27.339 16.175-6.54 13.639 1.121 30.909 3.129 38.093 10.456 46.066 10.232 52.658 11.236 53.813 12.631 51.165 13.226 52.827 15.309 57.306 18.711 55.193 21.501 57.842 17.614 64.913 20.403 70.801 23.062 76.97 18.377 78.576 12.371 77.816 9.675 83.14 9.396 87 7.89 86.267 6.235 86.098 5.026 85.985 2.59 86.408 2.999 87.619 4.394 91.761-1.594 94.155 2.162 98.212-0.422 102.607 3.948 106.41 3.353 111.171 3.278 112.129 3.687 112.946 4.338 113.172 7.22 114.383 3.018 116.749 3.464 119.313 33.029 136.836 65.104 124.722 95.394 132.779 103.259 127.145 97.346 134.78 100.489 133.596 102.943 132.216 104.728 137.935 107.499 134.695 107.927 133.765 107.276 131.568 108.8 131.991 109.6 132.216 110.307 132.16 110.418 130.864 110.586 128.92 109.117 130.131 108.726 129.117 112.947 123.99 111.906 136.188 115.866 135.681 115.68 134.188 114.528 132.047 116.889 132.329 119.232 130.188 119.306 128.413 121.389 133.23 121.463 134.272 121.835 135.005 122.43 135.512 128.938 130.272 135.409 137.371 142.233 135.005 146.417 132.413 150.433 136.414 154.672 135.428 156.16 134.639 157.666 133.23 159.098 135.597 176.632 136.104 195.319 133.991 211.943 135.681 256.364 132.526 303.836 136.977 350.674 132.808 361.719 131.202 373.192 128.92 383.958 127.089 383.958 127.089 392.679 122.074 392.679 99.536S394.538 79.816 394.817 61.87C395.096 43.925 396.398 43.192 394.538 29.106Z" opacity="1" fill="#fdb706" data-fill-palette-color="tertiary"></path><g transform="matrix(1,0,0,1,55.76832,26.230666666666668)"><svg width="283.98335999999995" viewBox="1.95 -39.08 170.56 50.010000000000005" height="83.24296057452733" data-palette-color="#eeedeb"><path d="M25.53-36.88L25.53-33.13 14.88-33.13 15.85-35.55 15.85 0 11.6 0 11.6-35.55 12.8-33.13 1.95-33.13 1.95-36.88 25.53-36.88ZM32.55 0L28.3 0 28.3-26.55 32.55-26.55 32.55-18.4 31.15-18.9Q31.3-20.38 31.9-21.81 32.5-23.25 33.56-24.41 34.62-25.58 36.22-26.26 37.82-26.95 39.97-26.95L39.97-26.95Q41.57-26.95 42.59-26.69 43.6-26.43 43.85-26.28L43.85-26.28 42.75-22.1Q42.5-22.28 41.73-22.55 40.97-22.83 39.57-22.83L39.57-22.83Q37.5-22.83 36.14-22.08 34.77-21.33 33.98-20.09 33.2-18.85 32.87-17.4 32.55-15.95 32.55-14.53L32.55-14.53 32.55 0ZM52.87 0L48.67 0 48.67-26.55 52.87-26.55 52.87 0ZM50.8-32.65L50.8-32.65Q49.62-32.65 48.76-33.31 47.89-33.98 47.89-35.13L47.89-35.13Q47.89-36.25 48.76-36.91 49.62-37.58 50.8-37.58L50.8-37.58Q51.97-37.58 52.82-36.91 53.67-36.25 53.67-35.13L53.67-35.13Q53.67-33.98 52.82-33.31 51.97-32.65 50.8-32.65ZM65.04 10.93L60.79 10.93 60.79-26.55 65.04-26.55 65.04 10.93ZM73.77 0.5L73.77 0.5Q70.69 0.5 68.02-1.01 65.34-2.53 63.68-5.18 62.02-7.83 62.02-11.23L62.02-11.23Q62.02-11.3 62.02-11.35 62.02-11.4 62.02-11.48L62.02-11.48 65.07-11.55Q65.07-11.5 65.07-11.44 65.07-11.38 65.07-11.33L65.07-11.33Q65.07-9.18 66.2-7.4 67.34-5.63 69.19-4.58 71.04-3.53 73.17-3.53L73.17-3.53Q76.69-3.53 79.03-5.94 81.37-8.35 81.37-13.3L81.37-13.3Q81.37-18.28 79.04-20.66 76.72-23.05 73.17-23.05L73.17-23.05Q71.04-23.05 69.19-22.01 67.34-20.98 66.2-19.23 65.07-17.48 65.07-15.3L65.07-15.3 62.02-15.4Q62.02-18.82 63.68-21.43 65.34-24.03 68.02-25.49 70.69-26.95 73.77-26.95L73.77-26.95Q76.99-26.95 79.72-25.36 82.44-23.78 84.09-20.73 85.74-17.68 85.74-13.3L85.74-13.3Q85.74-8.85 84.12-5.76 82.49-2.68 79.77-1.09 77.04 0.5 73.77 0.5ZM92.74-39.08L96.94-39.08 96.94 0 92.74 0 92.74-39.08ZM130.31-11.58L106.09-11.58 106.09-15.38 126.61-15.38 125.86-14.13Q125.86-14.28 125.86-14.41 125.86-14.55 125.86-14.68L125.86-14.68Q125.86-16.98 124.9-18.89 123.94-20.8 122.04-21.95 120.14-23.1 117.34-23.1L117.34-23.1Q114.51-23.1 112.36-21.9 110.21-20.7 109.01-18.51 107.81-16.32 107.81-13.3L107.81-13.3Q107.81-10.23 108.98-8 110.14-5.78 112.29-4.58 114.44-3.38 117.39-3.38L117.39-3.38Q119.49-3.38 121.04-3.81 122.59-4.25 123.6-4.99 124.61-5.73 125.14-6.6 125.66-7.48 125.76-8.35L125.76-8.35 130.01-8.35Q129.89-6.75 129.01-5.18 128.14-3.6 126.54-2.31 124.94-1.03 122.61-0.25 120.29 0.53 117.26 0.53L117.26 0.53Q113.26 0.53 110.21-1.23 107.16-2.98 105.43-6.08 103.69-9.18 103.69-13.2L103.69-13.2Q103.69-17.28 105.44-20.36 107.19-23.45 110.26-25.2 113.34-26.95 117.29-26.95L117.29-26.95Q121.31-26.95 124.26-25.2 127.21-23.45 128.81-20.41 130.41-17.38 130.41-13.5L130.41-13.5Q130.41-13.1 130.39-12.45 130.36-11.8 130.31-11.58L130.31-11.58ZM160.38 0.5L160.38 0.5Q156.56 0.5 153.85-0.71 151.13-1.93 149.68-4.38 148.23-6.83 148.23-10.48L148.23-10.48Q148.23-10.98 148.23-11.33 148.23-11.68 148.23-12.18L148.23-12.18 152.51-12.18Q152.51-11.7 152.51-11.38 152.51-11.05 152.51-10.55L152.51-10.55Q152.51-6.73 154.51-5.04 156.51-3.35 160.33-3.35L160.33-3.35Q164.28-3.35 166.31-4.7 168.33-6.05 168.33-9.08L168.33-9.08Q168.33-11.2 167.17-12.61 166.01-14.03 163.96-15.01 161.91-16 159.18-16.82L159.18-16.82Q156.11-17.78 153.7-19.23 151.28-20.68 149.9-22.81 148.51-24.95 148.51-28.03L148.51-28.03Q148.51-31.03 149.97-33.1 151.43-35.18 154.06-36.25 156.68-37.33 160.16-37.33L160.16-37.33Q163.83-37.33 166.55-36.19 169.26-35.05 170.75-32.74 172.23-30.43 172.23-26.93L172.23-26.93Q172.23-26.38 172.23-25.99 172.23-25.6 172.23-25.05L172.23-25.05 167.96-25.05Q167.96-25.53 167.96-25.9 167.96-26.28 167.96-26.75L167.96-26.75Q167.96-30.4 165.98-31.94 164.01-33.48 160.23-33.48L160.23-33.48Q156.61-33.48 154.63-32.2 152.66-30.93 152.66-28.03L152.66-28.03Q152.66-25.85 153.87-24.44 155.08-23.03 157.18-22.04 159.28-21.05 161.98-20.15L161.98-20.15Q165.26-19.07 167.62-17.71 169.98-16.35 171.25-14.33 172.51-12.3 172.51-9.22L172.51-9.22Q172.51-6.15 171.05-3.98 169.58-1.8 166.87-0.65 164.16 0.5 160.38 0.5Z" opacity="1" transform="matrix(1,0,0,1,0,0)" fill="#eeedeb" class="wordmark-text-0" data-fill-palette-color="quaternary" id="text-0"></path></svg></g></svg></g></svg></g></svg></g><g></g></svg></g><defs></defs></svg><rect width="395.52" height="135.70429390786066" fill="none" stroke="none" visibility="hidden"></rect></g></svg></g></svg>