<svg width="24" height="24" viewBox="0 0 24 24" fill="none" xmlns="http://www.w3.org/2000/svg">
<path d="M20.7166 13.06C20.9975 12.7788 21.1553 12.3975 21.1553 12C21.1553 11.6025 20.9975 11.2213 20.7166 10.94L15.0606 5.281C14.7792 4.99961 14.3975 4.84152 13.9996 4.84152C13.6016 4.84152 13.22 4.99961 12.9386 5.281C12.6572 5.5624 12.4991 5.94405 12.4991 6.342C12.4991 6.73995 12.6572 7.12161 12.9386 7.403L16.0346 10.5H4.49959C4.10177 10.5 3.72024 10.658 3.43894 10.9393C3.15763 11.2206 2.99959 11.6022 2.99959 12C2.99959 12.3978 3.15763 12.7794 3.43894 13.0607C3.72024 13.342 4.10177 13.5 4.49959 13.5H16.0346L12.9386 16.596C12.7993 16.7353 12.6887 16.9007 12.6133 17.0828C12.5379 17.2648 12.4991 17.46 12.4991 17.657C12.4991 17.854 12.5379 18.0492 12.6133 18.2312C12.6887 18.4133 12.7993 18.5787 12.9386 18.718C13.0779 18.8573 13.2433 18.9679 13.4254 19.0433C13.6074 19.1187 13.8025 19.1575 13.9996 19.1575C14.1966 19.1575 14.3918 19.1187 14.5738 19.0433C14.7558 18.9679 14.9213 18.8573 15.0606 18.718L20.7166 13.06Z" fill="black"/>
</svg>
